<?xml version="1.0" encoding="UTF-8"?>
<!-- Generator: visioncortex VTracer 0.6.12 -->
<svg version="1.1" xmlns="http://www.w3.org/2000/svg" width="795" height="1031" viewBox="0 0 795 1031" role="img" aria-label="然 (rán)">
<path d="M0 0 C2.4164123968403715 0.48328247936807145 4.658321825013218 1.2194406083377274 7 2 C7 2.6599999999999966 7 3.3200000000000003 7 4 C7.8662499999999795 3.793750000000003 8.732500000000016 3.5874999999999986 9.625 3.375 C13.364286021741918 2.9595237753620083 15.549421407179977 3.6033372362395255 19 5 C19 5.659999999999997 19 6.32 19 7 C20.026093749999973 7.215273437500002 21.052187500000002 7.430546874999997 22.109375 7.65234375 C26.50209994238952 8.907566008210502 29.08533762217661 11.377446756340134 32.25 14.5625 C37.663196668802016 19.887732222934005 37.663196668802016 19.887732222934005 41 21 C42.60173802316143 23.47782677616135 44.04058241968551 25.91057058742446 45.4375 28.5 C45.63802978515628 28.865892333984377 45.63802978515628 28.865892333984377 46.65283203125 30.717529296875 C57 49.773316976144315 57 49.773316976144315 57 60 C56.56079396481209 61.45020860675248 56.07696753510902 62.887252618047214 55.5625 64.3125 C54.58321907058712 67.11763649406593 53.91261642548551 69.54372001920125 53.4375 72.5 C53.293124999999975 73.325 53.14875000000001 74.15 53 75 C52.339999999999975 75.33 51.68000000000001 75.66 51 76 C50.37499999999994 78.06250000000017 50.37499999999994 78.06250000000017 50 80 C51.64999999999998 79.34 53.30000000000001 78.68 55 78 C55 82.68327348041029 54.000576190366644 84.5191472382574 51.4375 88.3125 C49.71704539569157 91.52900208631573 49.48297747054278 94.41216736168238 49 98 C48.339999999999975 98.32999999999998 47.68000000000001 98.66 47 99 C47 100.65 47 102.30000000000001 47 104 C46.00999999999999 104 45.01999999999998 104 44 104 C43.670000000000016 104.66 43.339999999999975 105.32 43 106 C42.339999999999975 106 41.68000000000001 106 41 106 C41 106.66 41 107.32 41 108 C40.339999999999975 108 39.68000000000001 108 39 108 C38.89687500000002 108.515625 38.79374999999999 109.03125 38.6875 109.5625 C38 112 38 112 36.4375 115.5625 C35 118.99999999999994 35 118.99999999999994 35 122 C35 122.66 35 123.32 35 124 C34.339999999999975 124.32999999999998 33.68000000000001 124.66 33 125 C32.855624999999975 125.66 32.71125000000001 126.32 32.5625 127 C32.376874999999984 127.66 32.191250000000025 128.32 32 129 C31.00999999999999 129.33 30.019999999999982 129.66 29 130 C27.97265625 131.59374999999994 27.97265625 131.59374999999994 27.0625 133.5 C26.039062500000057 135.4296874999999 26.039062500000057 135.4296874999999 25 137 C22.9375 137.625 22.9375 137.625 21 138 C20.56816406249999 138.750234375 20.136328124999977 139.50046875 19.69140625 140.2734375 C17.288469154338543 144.1469942962395 14.002625194233246 146.25996711854214 10.375 148.9375 C7.8751994807436745 151.10837939830154 6.623807955023324 153.1433860054689 5 156 C3.1175838366551716 157.9398945194775 1.1861691674274653 159.37200168383063 -1 161 C-1.660000000000025 161 -2.319999999999993 161 -3 161 C-3.2475000000000023 161.86625 -3.4950000000000045 162.7325 -3.75 163.625 C-5.9688446985284145 169.6158806860267 -9.490715122995596 173.59319887020024 -14 178 C-15.387641316136694 179.48831333318975 -16.761687405515204 180.98936974420639 -18.125 182.5 C-18.787578124999982 183.2321875 -19.45015625000002 183.964375 -20.1328125 184.71875 C-22.03475226173032 187.0424588302312 -23.491137781248142 189.40764629437848 -25 192 C-26.70877824233753 194.51862575055438 -28.46384575634454 197.00047349944637 -30.22265625 199.484375 C-31.32728632057365 201.04785140758116 -32.42064448832434 202.61943470343323 -33.49609375 204.203125 C-34.61506069540167 205.83675033275262 -35.801002742102526 207.4241750324776 -37 209 C-37.65999999999997 209 -38.31999999999999 209 -39 209 C-39.33000000000004 210.64999999999998 -39.65999999999997 212.3 -40 214 C-39.34000000000003 213.66999999999996 -38.68000000000001 213.34000000000003 -38 213 C-39.575905525858616 216.49654038549886 -41.66960372804289 219.33716200262734 -44 222.375 C-47.46399388776388 226.93176337053353 -50.86048184981723 231.5296745897441 -54.1875 236.1875 C-54.60845947265625 236.77684326171874 -55.0294189453125 237.36618652343748 -55.463134765625 237.973388671875 C-58.32171073110317 241.99700741123388 -61.0835476886034 246.073717734745 -63.74609375 250.23046875 C-65 252 -65 252 -66.66015625 253.61328125 C-68 255 -68 255 -68 257 C-67.34000000000003 257.66 -66.68 258.32 -66 259 C-71.00000000000017 264.00000000000017 -71.00000000000017 264.00000000000017 -73.375 266.3125 C-82.65514858327575 275.81360450192517 -82.65514858327575 275.81360450192517 -85 281 C-84.00999999999999 280.67 -83.02000000000001 280.34 -82 280 C-82 280.66 -82 281.32 -82 282 C-82.5916796875 282.2384765625 -83.18335937500001 282.476953125 -83.79296875 282.72265625 C-86.46543701213659 284.2693768194136 -87.6151672485482 285.87254802572176 -89.3125 288.4375 C-89.57869140625002 288.82873046875 -89.57869140625002 288.82873046875 -90.92578125 290.80859375 C-92 293 -92 293 -91 296 C-94.08571428571429 300.8 -94.08571428571429 300.8 -97 301.4375 C-99.7679003542087 302.2159719746212 -100.39175024153332 303.95452898960485 -101.880859375 306.282470703125 C-103.70321890324482 309.07922011001904 -105.7384199261893 311.7126146081917 -107.75 314.375 C-108.16121093749999 314.9202734375 -108.572421875 315.465546875 -108.99609375 316.02734375 C-109.9959115035704 317.3526835628724 -110.99774158762202 318.67650491698805 -112 320 C-109 319 -109 319 -107.8125 317.1875 C-105.69286870632743 314.62932430074 -103.49152044057846 313.7736958613422 -100.51953125 312.40625 C-96.5796163393021 310.20722772426166 -93.15148328496866 307.3701568612971 -89.65673828125 304.52880859375 C-86.52870313362163 302.0227664490249 -83.71861445829097 300.4251694703273 -80 299 C-78.25898625597472 297.7959344200199 -76.55209309152423 296.54161199287535 -74.875 295.25 C-69.4929551931408 291.2531463498659 -63.936925775536565 288.086192294082 -58 285 C-56.12272373837993 283.9833587004246 -54.247707223364614 282.9625333409224 -52.375 281.9375 C-51.921249999999986 281.6912890625 -51.921249999999986 281.6912890625 -49.625 280.4453125 C-47.947639495808005 279.52176579382285 -46.27975698520129 278.5806479815152 -44.625 277.6171875 C-38.86762947611646 274.2787122309425 -32.78909438381942 271 -26 271 C-26 270.34 -26 269.68 -26 269 C-11.953914016763179 261.86182515606 3.4420543377135004 257.34823540767223 18.75 253.82421875 C22 253 22 253 24.2734375 251.94140625 C28.626919083516384 250.43827005855667 33.049697228250864 250.44323485820735 37.625 250.25 C38.57890624999999 250.1945703125 39.53281249999998 250.13914062499998 40.515625 250.08203125 C40.97324218749998 250.06076171874997 40.97324218749998 250.06076171874997 43.2890625 249.953125 C43.70518798828124 249.93330566406252 43.70518798828124 249.93330566406252 45.81103515625 249.8330078125 C48 250 48 250 51 252 C52.59342613257854 252.34556229381224 54.20020005535457 252.63228818037595 55.8125 252.875 C60.51873601235087 253.73255029379573 63.21658517142009 255.13936927595182 67 258 C67.99000000000001 258.33 68.98000000000002 258.66 70 259 C70.43312500000002 259.763125 70.86624999999998 260.52625 71.3125 261.3125 C73 263.99999999999994 73 263.99999999999994 75.8125 265.625 C81.17305771414073 269.6191410419088 84.77214388804094 276.39047667392254 86 283 C86.21512624694003 284.70507469796934 86.40161073033676 286.4139553861208 86.5625 288.125 C86.60439453125002 288.55941406249997 86.60439453125002 288.55941406249997 86.81640625 290.7578125 C87 293.00000000000017 87 293.00000000000017 87 295 C86.33999999999997 295 85.68 295 85 295 C85.095390625 295.28552734375 85.095390625 295.28552734375 85.578125 296.73046875 C87.78023188072325 304.78352240101697 85.70416247577202 310.32366781071175 83 318 C82.31884958606571 320.4126243669124 81.6521107232939 322.829364995133 81 325.25 C79.67075179708576 329.94116000016817 78.1382843373026 334.2853533871883 76.05859375 338.6875 C72.90986428042794 345.56590533574416 70.45592742067953 352.77194679248856 67.815185546875 359.858154296875 C65.52142248669844 366.00436793298223 63.205215579312835 372.1415467177203 60.8125 378.25 C60.344570312500025 379.45140625 59.87664062499999 380.6528125 59.39453125 381.890625 C58.158234850819554 384.64718503850884 56.80016520172137 386.61529839657027 55 389 C54.632392688953075 391.3281796366304 54.297584191037515 393.66183849899113 54 396 C53.339999999999975 396.99 52.68000000000001 397.98 52 399 C51.339999999999975 399 50.68000000000001 399 50 399 C49.855624999999975 399.7425 49.71125000000001 400.485 49.5625 401.25 C49.09812507875779 403.52027739273956 48.581364312456856 405.7575947948093 48 408 C49.64999999999998 408.33 51.30000000000001 408.66 53 409 C53 408.34 53 407.68 53 407 C53.30292968750001 406.94521484375 53.30292968750001 406.94521484375 54.8359375 406.66796875 C60.279495370459074 405.63788010682083 65.44252399527466 404.3134337801604 70.67578125 402.48828125 C73 402 73 402 75.41015625 402.53125 C78.8068735621361 403.14604046373506 80.89150531437133 402.3342155338758 84.125 401.1875 C85.15882812500001 400.8304296875 86.19265625000003 400.473359375 87.2578125 400.10546875 C90.00000000000011 398.99999999999994 90.00000000000011 398.99999999999994 93 397 C94.71281911210264 396.4465851010977 96.44521151818856 395.95215949316406 98.1875 395.5 C99.16332031249999 395.2421875 100.13914062499998 394.984375 101.14453125 394.71875 C102.86693286267689 394.28520431363535 104.59274567068127 393.8645152752729 106.32421875 393.46875 C110.4184540148874 392.5329247965972 113.4874525247148 391.27840917315797 117 389 C119.6875 387.75 119.6875 387.75 122 387 C122.66000000000003 387.33 123.32 387.66 124 388 C129.6364969611165 386.4671972292791 134.68222715408473 383.75817315100807 139.87890625 381.14453125 C143.2004216695459 379.92650369314526 144.68562472138558 379.9322403664799 148 381 C148.721875 380.071875 149.44375000000002 379.14375 150.1875 378.1875 C152.4953465099233 375.41415035881374 154.7192685510434 373.5960315157086 158 372 C158.66000000000003 372 159.32 372 160 372 C160.226875 370.865625 160.45375 369.73125 160.6875 368.5625 C162.96083617671297 358.364506024182 166.15386745337076 348.3682016319081 169.5625 338.5 C171.3650144000701 333.1882153772935 172.81956648008736 327.89917186080993 174.0625 322.4375 C180.74590897573546 293.13841488646125 180.74590897573546 293.13841488646125 190 284 C190.32999999999993 283.01 190.66000000000008 282.02 191 281 C191.66000000000008 280.67 192.31999999999994 280.34 193 280 C193.41250000000002 279.29875 193.82500000000005 278.5975 194.25 277.875 C196.4664131387774 274.2337498434371 199.17191517339938 271.1758751936259 202 268 C202.32999999999993 268.66 202.66000000000008 269.32 203 270 C203.72703124999998 269.4547265625 204.45406249999996 268.909453125 205.203125 268.34765625 C206.76656265810823 267.1750780064188 208.33007814162625 266.002601835293 209.89501953125 264.83203125 C212.60033157706596 262.8071485405703 215.2961002770562 260.7726789211576 217.9765625 258.71484375 C223.9641399823264 254.13943076822227 230.07018288835775 249.90880533449467 236.45654296875 245.91796875 C238.86423829993248 244.40876996076582 240.98272246452234 243.01727753547766 243 241 C244.7058648841528 240.27578538914906 246.44001094426585 239.6170444114041 248.1875 239 C249.17105468750003 238.65195312499998 250.15460937499995 238.30390625 251.16796875 237.9453125 C253.4364910017149 237.18809541735862 255.69233713847325 236.49762424101152 258 235.875 C261 235 261 235 264 233 C267.95239195782926 231.81309550815934 271.9822390739582 230.93882353296954 276 230 C276.75796875000003 229.80148437499997 277.51593749999995 229.60296875 278.296875 229.3984375 C284.2030131086086 227.91080120948584 290.083478272511 227.56400594513565 296.15625 227.24609375 C299 227 299 227 300 226 C303.68186898456486 226.14014034197305 307.3383965652795 226.59872839071556 311 227 C312.23749999999995 227.12374999999997 313.475 227.2475 314.75 227.375 C318.533756875784 228.10264555303536 321.5189945872231 229.3660586837986 325 231 C325 231.65999999999997 325 232.32 325 233 C325.28874999999994 233.061875 325.28874999999994 233.061875 326.75 233.375 C330.9419087136929 234.53941908713693 330.9419087136929 234.53941908713693 333 236 C336.355015141654 242.71003028330801 337.12251133769735 247.64931973815794 337 255 C337.65999999999997 255 338.32000000000005 255 339 255 C339 256.98 339 258.96 339 261 C338.01 261.33 337.02 261.66 336 262 C335.34000000000003 262.99 334.67999999999995 263.98 334 265 C328.3148057606345 267.73083689104567 322.17771157520076 269.32121637334086 316.015625 270.5625 C313.26661197883993 271.15918499684096 310.64487499363383 272.050557694593 308 273 C308 272.34 308 271.68 308 271 C307.34000000000003 271 306.67999999999995 271 306 271 C305.66999999999996 272.65 305.34000000000003 274.3 305 276 C304.360625 275.814375 303.72125000000005 275.62875 303.0625 275.4375 C302.38187500000004 275.293125 301.70124999999996 275.14875 301 275 C300.66999999999996 275.33 300.34000000000003 275.66 300 276 C297.6670256686433 276.04092937423434 295.3329477539977 276.04241723189085 293 276 C293 276.66 293 277.32 293 278 C289.49223215517793 279.6035510147758 286.8564512107147 280.22036864061226 283 280 C283.61875 279.71125 284.23749999999995 279.4225 284.875 279.125 C287 278 287 278 289 276 C288.66999999999996 275.34 288.34000000000003 274.68 288 274 C288.6148828125 273.708671875 289.229765625 273.41734375 289.86328125 273.1171875 C293.7143596481759 271.1640089822649 296.492547452812 269.67162837127825 299.125 266.1875 C300.2683849182258 262.02231208360587 299.80182904099775 259.2278258525337 299 255 C292.9025481175597 253.14760955470172 287.43066391642026 251.54066686311285 281 252 C280.6016796875 252.02126953125003 280.6016796875 252.02126953125003 278.5859375 252.12890625 C270.4430117955478 252.6803724000133 260.8965550971344 253.4022966019104 254 258 C252.93265625000004 258.1340625 251.86531249999996 258.268125 250.765625 258.40625 C246.60469623696588 259.0623300539224 243.39045745376472 260.4925600432281 239.75 262.5 C239.10248779296876 262.8523974609375 238.45497558593752 263.204794921875 237.787841796875 263.56787109375 C229.805714746969 268.0517253660174 221.12200334894487 273.56862951352196 217 282 C216.25 285.37499999999994 216.25 285.37499999999994 216 288 C216.68062499999996 288.495 217.36124999999993 288.99 218.0625 289.5 C220.53345591004404 291.60294120003744 222.3843307142829 293.58500906190136 224.4375 296.0625 C227.33651683147923 299.4782980927428 229.9214652240663 301.09668377123097 234 303 C235.38232443201628 304.6262640376662 236.7193751525134 306.29250020335127 238 308 C240.2189835627986 309.9326631030827 241.91842625577965 310.96964697889473 244.6875 312 C245.06906249999997 312.16499999999996 245.06906249999997 312.16499999999996 247 313 C247.33000000000004 313.99 247.65999999999997 314.98 248 316 C250.06250000000023 316.9375000000001 250.06250000000023 316.9375000000001 253 318 C254.38415466859522 318.62597248170385 255.75879349323543 319.273267002236 257.125 319.9375 C257.787578125 320.2558984375 258.45015624999996 320.574296875 259.1328125 320.90234375 C261.11159774647524 322.06560453296976 262.4431155182924 323.3230252552406 264 325 C264.84562500000004 325.825 265.69124999999997 326.65 266.5625 327.5 C269.0000000000001 330.00000000000017 269.0000000000001 330.00000000000017 271 333 C270.7459950528547 338.24943557433505 270.12601611198284 341.6507601920239 267 346 C267.65999999999997 346 268.32000000000005 346 269 346 C269.65999999999997 344.35 270.32000000000005 342.7 271 341 C273 342 273 342 273.9375 344.75 C274.28812500000004 345.8225 274.63874999999996 346.895 275 348 C275.28874999999994 348.4125 275.28874999999994 348.4125 276.75 350.5 C278 353 278 353 277.5 356.125 C275.7393823574156 359.4995171482869 274.39401255299765 360.3838035461916 271 362 C270.23687500000005 362.391875 269.47375 362.78375 268.6875 363.1875 C268.130625 363.455625 267.57375 363.72375 267 364 C267.33000000000004 366.31 267.65999999999997 368.62 268 371 C267.34000000000003 371 266.67999999999995 371 266 371 C266.65999999999997 372.65 267.32000000000005 374.3 268 376 C267.72349609375 376.1340625 267.72349609375 376.1340625 266.32421875 376.8125 C263.7622062439983 378.1214946249151 261.2894819474766 379.53649515658697 258.8125 381 C257.93207031249995 381.515625 257.051640625 382.03125 256.14453125 382.5625 C254 384 254 384 253 386 C252.01 386 251.01999999999998 386 250 386 C249.79375000000005 386.61875 249.58749999999998 387.2375 249.375 387.875 C247.41908920397225 390.8977712302248 245.42333930825168 391.07833172470146 242 392 C241.01 392.350625 240.01999999999998 392.70125 239 393.0625 C236.0045213054882 393.99858709203494 233.1031723749486 394.55668966072164 230 395 C229.67000000000007 395.99 229.33999999999992 396.98 229 398 C227.109375 398.87890625000006 227.109375 398.87890625000006 224.75 399.5625 C223.93144531250005 399.812578125 223.11289062499998 400.06265625 222.26953125 400.3203125 C221.89505859375004 400.43246093749997 221.89505859375004 400.43246093749997 220 401 C218.31422288906197 401.6167477235139 216.6455196159966 402.28272221866814 215 403 C214.36062500000003 403.2642578125 213.72125000000005 403.528515625 213.0625 403.80078125 C207.10858373204906 406.46034311233836 204.42802082002754 409.58861692993435 201.875 415.6875 C201.58625000000006 416.450625 201.2975 417.21375 201 418 C200.33999999999992 418.99 199.68000000000006 419.98 199 421 C198.31875294114366 422.9950806723649 197.65572791479258 424.99638692702257 197 427 C196.094266463037 429.34787237251567 195.1520057081375 431.67936606118894 194.20703125 434.01171875 C193.2985828594799 436.26079000808363 192.4009149566839 438.5128633467226 191.51171875 440.76953125 C191.25165039062495 441.4270336914062 190.99158203125 442.0845361328125 190.7236328125 442.761962890625 C190.21194411775878 444.055963214003 189.7020817681764 445.3506877156946 189.1943359375 446.646240234375 C187.64880534015788 450.54058423283163 185.88538347003305 454.2610091858334 184 458 C183.3002802678766 459.9886771334034 182.62335603183647 461.9860805125285 182 464 C181.33999999999997 464 180.68 464 180 464 C179.82984375 464.605859375 179.65968750000002 465.21171875000005 179.484375 465.8359375 C177.68236206384574 472.06630137500144 175.47838540607313 478.0113363793771 173 484 C172.2477873512043 485.8741134253272 171.4977217515119 487.74909030539425 170.75 489.625 C170.16666666666669 491.08333333333326 169.58333333333331 492.54166666666674 169 494 C168.01 494 167.01999999999998 494 166 494 C166 494.6600000000001 166 495.31999999999994 166 496 C165.01 496.6600000000001 164.01999999999998 497.31999999999994 163 498 C162.8125 500.625 162.8125 500.625 163 503 C163.99 503 164.98000000000002 503 166 503 C165.33999999999997 505.30999999999995 164.68 507.62 164 510 C164.99 510 165.98000000000002 510 167 510 C167.32999999999998 509.6700000000001 167.66000000000003 509.3399999999999 168 509 C169.84855449436412 508.67465440899196 171.70435141969693 508.39011756965533 173.5625 508.125 C177.24627836329626 507.54289351334705 180.61289270022172 506.9229630111586 184.0625 505.5 C187.98084703906625 503.8875115065571 191.86676410621544 503.2134888157077 196.0390625 502.5390625 C199.10710117403323 501.98050136937127 202.0522967946249 501.18631421404314 205.0625 500.375 C210.57468787268397 499.0729604185626 215.8018064780233 498.7069709460163 221.4375 498.6875 C222.19490478515627 498.68218261718744 222.95230957031254 498.676865234375 223.732666015625 498.67138671875 C228.22773262833903 498.7282294912236 231.72747617267942 499.48560618488636 236 501 C236.65999999999997 500.6700000000001 237.32000000000005 500.3399999999999 238 500 C243.30424737470923 500.33151546091926 247.57890451402056 501.90437781729054 252.453125 503.96484375 C254.8226707498725 504.9279259949635 257.1780670938589 505.6992012783195 259.625 506.4375 C263.4418293917811 507.68081044986207 266.55176276135944 509.38402816807377 269.87890625 511.61328125 C273.1075404459623 513.7240826120011 276.51217937534716 515.5298562540592 279.8984375 517.375 C282.43997136310816 519.3402009053029 282.9337166934678 521.0241002263147 284 524 C284.78375000000005 524.45375 285.5675 524.9075 286.375 525.375 C291.58789286430635 528.6020289159992 293.25547180379453 534.392587940768 295 540 C295.6381534447173 541.3472128277365 296.29325371171535 542.6874711789 297 544 C296.34000000000003 544.78375 295.67999999999995 545.5675 295 546.375 C293 548.9999999999999 293 548.9999999999999 293 551 C294.98 551.33 296.96000000000004 551.66 299 552 C299 552.66 299 553.32 299 554 C297.02 554.66 295.03999999999996 555.32 293 556 C293.04125 556.5465624999999 293.04125 556.5465624999999 293.25 559.3125 C293 563 293 563 291.0625 564.75 C290.38187500000004 565.1625 289.70124999999996 565.575 289 566 C288.66999999999996 566.99 288.34000000000003 567.98 288 569 C285.1992187499998 570.3164062500001 285.1992187499998 570.3164062500001 281.6875 571.5625 C274.18185508750537 574.2604977792954 267.36342703974594 577.5783325313829 260.875 582.25 C257.8630962532559 584.0833327154094 256.44417063815513 584.4051965456653 253 584 C252.66999999999996 584.99 252.34000000000003 585.98 252 587 C251.01 586.34 250.01999999999998 585.68 249 585 C249.33000000000004 586.32 249.65999999999997 587.64 250 589 C246.37 591.97 242.74 594.94 239 598 C239 595 239 595 240 594 C234.56962025316454 591.7784810126583 234.56962025316454 591.7784810126583 231.75 592.875 C231.1725 593.24625 230.59500000000003 593.6175 230 594 C229.33999999999992 594 228.68000000000006 594 228 594 C228.01031250000005 594.515625 228.01031250000005 594.515625 228.0625 597.125 C227.68113981436943 599.8442639323225 227.17583898367639 600.8298089494182 225.17578125 602.765625 C220.58931825810737 605.973813035076 216.7125802017373 607.8901426884281 211 608 C209.3265655201492 607.7025005369154 207.65694084933398 607.3787293369907 206 607 C205.33999999999992 607.33 204.68000000000006 607.66 204 608 C203.33999999999992 607.67 202.68000000000006 607.34 202 607 C202 607.66 202 608.32 202 609 C200.24761272169485 610.3545238401185 198.40217482935168 611.4994171218984 196.53125 612.68359375 C196.02593750000005 613.1180078125 195.520625 613.552421875 195 614 C195 614.99 195 615.98 195 617 C196.31999999999994 617.33 197.64 617.66 199 618 C197.68000000000006 619.32 196.36 620.64 195 622 C193.35000000000002 621.34 191.70000000000005 620.68 190 620 C189.67000000000007 620.99 189.33999999999992 621.98 189 623 C182.090909090909 629 182.090909090909 629 178 629 C177.67000000000002 628.01 177.33999999999997 627.02 177 626 C175.55680308015206 626.9076710187722 174.12065894375473 627.8265610633542 172.6875 628.75 C172.28724609375 629.005234375 172.28724609375 629.005234375 170.26171875 630.296875 C167.9950348735265 632.003738851714 166.6746433719258 633.7409502900707 165 636 C164.33999999999997 636 163.68 636 163 636 C163.66000000000003 637.32 164.32 638.64 165 640 C162.50935111863885 640.687075553479 160.62113708427745 641 158 641 C155.9374999999999 641.7500000000001 155.9374999999999 641.7500000000001 154 643 C153.72414062500002 643.621328125 153.44828124999998 644.24265625 153.1640625 644.8828125 C151.68431028807106 647.5741739055889 150.03966957325196 648.5294481910397 147.4375 650.125 C143.09722222222223 652.8055555555555 143.09722222222223 652.8055555555555 142 655 C138.93750000000006 655.625 138.93750000000006 655.625 136 656 C136.9254370906708 654.6582659656293 137.86577405389482 653.3267984062204 138.8125 652 C139.33457031249998 651.2575 139.856640625 650.515 140.39453125 649.75 C140.92433593750002 649.1725 141.45414062499998 648.595 142 648 C142.99 648 143.98000000000002 648 145 648 C145 646.68 145 645.36 145 644 C145.66000000000003 643.67 146.32 643.34 147 643 C147.32999999999998 642.01 147.66000000000003 641.02 148 640 C150.30528406525474 637.3745375923488 152.0828136881966 635.3509103623156 155.37890625 634.08984375 C158.37284606590163 632.8449716059813 160.28261873579248 631.2889848387606 162.6875 629.125 C163.45449218750002 628.446953125 164.221484375 627.76890625 165.01171875 627.0703125 C166.89607505789428 625.1082126116228 167.95600685191204 623.4899515724451 169 621 C169.66000000000003 621 170.32 621 171 621 C170.67000000000002 620.01 170.33999999999997 619.02 170 618 C170.99 618 171.98000000000002 618 173 618 C173.226875 617.21625 173.45375 616.4325 173.6875 615.625 C175 613 175 613 177.625 611.6875 C178.40875 611.460625 179.1925 611.23375 180 611 C180 609.68 180 608.36 180 607 C180.99 606.67 181.98000000000002 606.34 183 606 C183.32999999999993 605.34 183.66000000000008 604.68 184 604 C184.66000000000008 604 185.31999999999994 604 186 604 C186.10312499999998 603.236875 186.20624999999995 602.47375 186.3125 601.6875 C187.05539884331176 598.7834408852359 187.56993982730023 597.7100423437518 190 596 C191.31999999999994 596 192.64 596 194 596 C194.22687500000006 595.113125 194.45375 594.22625 194.6875 593.3125 C196.18389846494858 589.5358753027488 197.92491736632655 587.6138202386225 201 585 C201.66000000000008 585 202.31999999999994 585 203 585 C203.020625 584.6596875 203.020625 584.6596875 203.125 582.9375 C204.60305054410378 577.9754731733659 208.31049754105106 574.6009266018777 212.01171875 571.09375 C219.07850672395193 563.6521029390212 224.10247306197562 551.3533298424871 223.9375 541.125 C222.2304823377383 535.4349411257942 220.63036721261176 530.8745512586631 216 527 C201.944740918379 521.8329088698567 188.90619051892622 523.5101783020609 175.4375 529.25 C169.83384230146822 531.9123352365713 164.94219394152213 535.2734904202993 160 539 C159.15695312499997 539.6148828125 158.31390625 540.229765625 157.4453125 540.86328125 C153.61357216562106 543.7217840234105 151.04927405757684 545.6513436337248 149 550 C147.74529480326294 551.6946667592292 146.4501424048363 553.3598237404291 145.125 555 C144.446953125 555.845625 143.76890625 556.69125 143.0703125 557.5625 C141.14355212036435 559.8309876922502 139.13679359131993 561.9302806469726 137 564 C137.32999999999998 564.99 137.66000000000003 565.98 138 567 C137.01 567.33 136.01999999999998 567.66 135 568 C133.725788960177 570.548422079646 133.0308670019598 572.8147979882413 132.5625 575.625 C131.91247156958525 578.3695644839735 130.98895247139035 579.0939205482509 129 581 C128.31249999999994 583.1875000000001 128.31249999999994 583.1875000000001 128 585 C127.33999999999997 585 126.68 585 126 585 C125.74476562500001 585.5787890625 125.48953125000003 586.157578125 125.2265625 586.75390625 C123.47566814029062 589.9601618450092 120.99703451605257 592.2989625273991 118.4609375 594.90234375 C116.6611961167751 597.4864643991758 116.84528070446083 598.9155959792517 117 602 C115.56250000000011 604.6874999999998 115.56250000000011 604.6874999999998 114 607 C113.67000000000002 607.66 113.33999999999997 608.32 113 609 C112.00999999999999 609.33 111.01999999999998 609.66 110 610 C109.70093750000001 610.6355078125 109.40187500000002 611.271015625 109.09375 611.92578125 C107.66245090585699 614.6401377463926 106.31366157391227 615.0684300558304 103.5 616.1875 C102.7059375 616.5110546875 101.91187500000001 616.834609375 101.09375 617.16796875 C100.40281249999998 617.4425390625 99.71187500000002 617.717109375 99 618 C98.33999999999997 618.33 97.68 618.66 97 619 C96.40187500000002 618.835 95.80374999999998 618.67 95.1875 618.5 C91.52754113071938 617.6634379727359 88.49229128759964 618.8359029041335 85 620 C84.87625000000003 620.928125 84.7525 621.85625 84.625 622.8125 C84 626 84 626 82 629 C78.42892522406856 629.8759240016435 75.78818727484628 630.1751527277436 72.1875 629.375 C68.53304174199502 627.0779119521112 68.22393777503811 623.8157733233531 67.125 619.8125 C66 617 66 617 64.03515625 616.09765625 C62 615 62 615 60.98828125 612.9765625 C60.87677734375001 612.5885546874999 60.87677734375001 612.5885546874999 60.3125 610.625 C60.08175781249997 609.854140625 59.851015625 609.08328125 59.61328125 608.2890625 C57.61926676379255 600.8464351820536 56.08392545237331 593.6352667579669 58 586 C59.307457492705566 584.3129580739284 60.64172029261982 582.6463996453093 62 581 C62.61796985618565 578.7966178231173 63.017415530241124 576.5933619986967 63.43359375 574.34375 C64.18887857512914 571.2184334822242 65.5432836247814 568.6220894753935 67.09765625 565.82421875 C68 564 68 564 68.37109375 562.01953125 C69.23105588169841 559.2580379451051 70.94391972395636 558.0070361593674 73 556 C76.09561250387077 551.125734834981 78.74855166757033 546.0277839409016 80.625 540.5625 C81.99999999999994 537 81.99999999999994 537 83.9375 535.125 C86.71972504654559 532.258465103559 87.60329838750886 529.1198503608524 88.9921875 525.41796875 C90.22229703772433 522.4666594327466 91.740511021146 520.259488978854 94 518 C94.66000000000003 518 95.32 518 96 518 C96 516.02 96 514.04 96 512 C97.32 511.6700000000001 98.63999999999999 511.3399999999999 100 511 C100.12246093750002 510.42765625000004 100.12246093750002 510.42765625000004 100.7421875 507.53125 C101.91631117817423 502.834755287303 103.88646649200359 498.7714066937034 106.125 494.5 C106.49753906249998 493.77296875 106.87007812500002 493.04593750000004 107.25390625 492.296875 C108.1619012645894 490.5274488177231 109.0799026469266 488.763163299843 110 487 C110.62499999999994 488.8124999999998 110.62499999999994 488.8124999999998 111 491 C110.33999999999997 491.99 109.68 492.98 109 494 C109.66000000000003 493.6700000000001 110.32 493.3399999999999 111 493 C111.37890625 491.1093749999999 111.37890625 491.1093749999999 111.5625 488.75 C111.6385546875 487.937890625 111.71460937500001 487.12578125000005 111.79296875 486.2890625 C111.86128906250002 485.533671875 111.92960937499998 484.77828124999996 112 484 C112.70138466611297 478.6227175598008 114.59501237185663 477.2042751098372 118.625 473.75 C121.49877077789478 470.42247594138496 121.52375154425334 468.28623610171996 122 464 C123.37499999999994 462.3125 123.37499999999994 462.3125 125 461 C127.56266994218515 458.33482326012745 128.26664260747197 456.1109825236351 128.9375 452.5625 C129.75820069257986 448.3564089505282 131.2613944739524 446.3195218497546 134 443 C135.5513467283497 439.2985411393761 136.71390526823325 435.52666068072097 137.453125 431.58203125 C138.0721617093493 428.6592936437151 139.01758788255307 425.98516792735785 140.0625 423.1875 C140.42472656249998 422.2116796875 140.78695312500003 421.235859375 141.16015625 420.23046875 C141.29873046875002 419.86244140625 141.29873046875002 419.86244140625 142 418 C138.7 418.66 135.39999999999998 419.32 132 420 C131.67000000000002 419.01 131.33999999999997 418.02 131 417 C130.33999999999997 417 129.68 417 129 417 C129 417.99 129 418.98 129 420 C128.33999999999997 420 127.68 420 127 420 C126.67000000000002 419.34 126.33999999999997 418.68 126 418 C121.284441650313 416.2770075260759 117.16620378530581 417.65807984182874 112.5 418.875 C111.01056810853595 419.2480010781732 109.5209883044289 419.62041210013365 108.03125 419.9921875 C107.33644531250002 420.168466796875 106.64164062499998 420.34474609375 105.92578125 420.5263671875 C103.63025585501174 421.09093605999965 101.32368428818313 421.56661443831507 99 422 C99 422.66 99 423.32 99 424 C98.484375 423.896875 98.484375 423.896875 95.875 423.375 C91.87657840211142 422.98805597439787 89.66306243041595 423.48116923616897 86 425 C86.66000000000003 425.33 87.32 425.66 88 426 C88 426.66 88 427.32 88 428 C82.49163305777364 429.63210872362265 77.93842637109674 430.1467432986106 72.19921875 429.77734375 C69.99999999999994 430 69.99999999999994 430 68.578125 431.46875 C66.24933635499167 433.72836670505757 64.24441474325516 433.44057248820656 61.0625 433.5625 C55.36770176787087 433.7953727901614 55.36770176787087 433.7953727901614 53.16796875 435.01953125 C49.65370050902192 436.6088669770009 46.05427695894781 436.2070159211713 42.25 436.125 C41.45722656250001 436.1159765625 40.66445312500002 436.106953125 39.84765625 436.09765625 C37.898307185562544 436.07417011669355 35.949114254834114 436.0383013718199 34 436 C33.91750000000002 436.81984375 33.83499999999998 437.6396875 33.75 438.484375 C32.821027180682904 442.83893509054883 31.054381491923493 446.32799896996426 29 450.25 C28.631328124999982 450.969296875 28.26265625000002 451.68859375 27.8828125 452.4296875 C26.92837001647939 454.28980533284675 25.964808982741033 456.1452379038686 25 458 C24.670000000000016 458.66 24.339999999999975 459.32 24 460 C22.680000000000007 460 21.360000000000014 460 20 460 C19.670000000000016 461.65 19.339999999999975 463.29999999999995 19 465 C18.670000000000016 464.3399999999999 18.339999999999975 463.68000000000006 18 463 C17.339999999999975 463 16.680000000000007 463 16 463 C15.711250000000007 463.9075 15.422500000000014 464.81500000000005 15.125 465.75 C13.999999999999943 469.0000000000001 13.999999999999943 469.0000000000001 12.875 471.1875 C12 473 12 473 12 476 C10.5 477.6875 10.5 477.6875 9 479 C9.660000000000025 479 10.319999999999993 479 11 479 C11.329999999999984 480.65 11.660000000000025 482.29999999999995 12 484 C10.680000000000007 484.3299999999999 9.360000000000014 484.6600000000001 8 485 C8 483.68000000000006 8 482.36 8 481 C7.375 483.3750000000002 7.375 483.3750000000002 7 486 C7.660000000000025 486.6600000000001 8.319999999999993 487.31999999999994 9 488 C7.250000000000114 490.9374999999998 7.250000000000114 490.9374999999998 5 494 C4.339999999999975 494.13921875000005 3.680000000000007 494.2784375 3 494.421875 C1 495 1 495 -0.265625 496.92578125 C-0.4280468750000068 497.31958984375 -0.4280468750000068 497.31958984375 -1.25 499.3125 C-1.5851562500000114 500.0923828125 -1.9203125000000227 500.87226562499995 -2.265625 501.67578125 C-3 504 -3 504 -3 508 C-4.649999999999977 508 -6.300000000000011 508 -8 508 C-8.329999999999984 508.99 -8.660000000000025 509.98 -9 511 C-7.680000000000007 511.3299999999999 -6.360000000000014 511.6600000000001 -5 512 C-5.329999999999984 513.32 -5.660000000000025 514.64 -6 516 C-6.309374999999989 516.0515625 -6.309374999999989 516.0515625 -7.875 516.3125 C-10 517 -10 517 -12 520 C-12.309374999999989 520.04125 -12.309374999999989 520.04125 -13.875 520.25 C-17.455424746762162 521.5136793223867 -18.327651980424434 524.7150306758336 -20 528 C-18.680000000000007 527.34 -17.360000000000014 526.68 -16 526 C-15.670000000000016 526.99 -15.339999999999975 527.98 -15 529 C-17.928675939877394 533.2303096909341 -21.047682490062357 537.3492274966875 -26 539 C-26.268124999999998 539.66 -26.536249999999995 540.32 -26.8125 541 C-27.204375000000027 541.66 -27.596249999999998 542.32 -28 543 C-31.12499999999966 543.75 -31.12499999999966 543.75 -34 544 C-33.77312499999999 544.556875 -33.546249999999986 545.11375 -33.3125 545.6875 C-32.863563206447566 549.0096322722882 -34.03424939136221 550.3564043539009 -36 553 C-36.680624999999964 553.495 -37.36125000000004 553.99 -38.0625 554.5 C-40.526627221230115 556.4077113970814 -40.96167905943241 558.0927013664107 -42 561 C-42.515625 561.804375 -43.03125 562.60875 -43.5625 563.4375 C-45.178588383766 566.3183532058438 -45.620919679093674 568.7399092402055 -46 572 C-46.33000000000004 571.34 -46.65999999999997 570.68 -47 570 C-47.65999999999997 570.33 -48.31999999999999 570.66 -49 571 C-49 573 -49 573 -48.4375 574.9375 C-48 577 -48 577 -49 580 C-49.65999999999997 580 -50.31999999999999 580 -51 580 C-51 580.66 -51 581.32 -51 582 C-51.99000000000001 582.33 -52.98000000000002 582.66 -54 583 C-54.433650094984614 584.6678849807101 -54.86381060478794 586.3368207018169 -55.26953125 588.01171875 C-56.58857872293214 591.602067219104 -59.16921172916 594.4692137469935 -62 597 C-62.65999999999997 597 -63.31999999999999 597 -64 597 C-64 597.66 -64 598.32 -64 599 C-64.5684765625 599.1121484375 -65.13695312499999 599.224296875 -65.72265625 599.33984375 C-72.92824110380923 601.180335373761 -76.12304994702819 604.8032355710696 -80 611 C-81.02930047093133 612.9850794796533 -82.03863928843285 614.9811425057089 -83 617 C-84.56250000000006 618.8750000000001 -84.56250000000006 618.8750000000001 -86 620 C-86.66 620 -87.32 620 -88 620 C-88.1134375 620.268125 -88.1134375 620.268125 -88.6875 621.625 C-90.00000000000003 624 -90.00000000000003 624 -92.5625 627.0625 C-94.99999999999997 630 -94.99999999999997 630 -96 633 C-96.639375 633.144375 -97.27875 633.28875 -97.9375 633.4375 C-98.61812499999999 633.623125 -99.29875000000001 633.80875 -100 634 C-101.00000000000009 635.7500000000002 -101.00000000000009 635.7500000000002 -102 638 C-103.31037934091393 639.684773438318 -104.64843325238178 641.3480850862444 -106 643 C-107.55179881724791 645.1367076022105 -109.0990275820597 647.2760982432495 -110.6328125 649.42578125 C-111.083984375 649.9452734375 -111.53515625 650.464765625 -112 651 C-112.66 651 -113.32 651 -114 651 C-114.144375 651.2990625 -114.144375 651.2990625 -114.875 652.8125 C-116.00000000000014 655.0000000000002 -116.00000000000014 655.0000000000002 -118 658 C-118.99000000000001 658 -119.97999999999999 658 -121 658 C-121 658.99 -121 659.98 -121 661 C-122.28817343566203 662.377012982949 -123.62804425857834 663.7064417295168 -125 665 C-125.495 665.70125 -125.99000000000001 666.4025 -126.5 667.125 C-127.99999999999994 669 -127.99999999999994 669 -130.0625 669.9375 C-132.75672069302868 671.4149758639189 -132.96667372816424 673.1755748569823 -134 676 C-134.97403883011694 677.025304031702 -135.978655117068 678.0218105346567 -137 679 C-138.19674420239286 680.3460040583706 -139.38388088456293 681.7005967024647 -140.5625 683.0625 C-142.33238212644338 685.106428391183 -144.08766823177996 687.08766823178 -146 689 C-146 689.99 -146 690.98 -146 692 C-144.68 690.68 -143.36 689.36 -142 688 C-141.34 688.33 -140.68 688.66 -140 689 C-142.91641304922643 692.0075509570147 -145.91448675631085 694.9157690848689 -149 697.75 C-149.639375 698.34296875 -150.27875 698.9359375 -150.9375 699.546875 C-153.3242242286563 701.2284307065534 -155.13529999755264 701.5776403842546 -158 702 C-158.99 702.33 -159.98000000000002 702.66 -161 703 C-161.66 702.34 -162.32 701.68 -163 701 C-163.1959375 701.3196875 -163.1959375 701.3196875 -164.1875 702.9375 C-166.38472295823522 705.4377881938539 -167.7579143259099 705.6495042514497 -171 706 C-170.835 705.175 -170.835 705.175 -170 701 C-172.74999999999991 700.6875 -172.74999999999991 700.6875 -176 701 C-178.12500000000017 703.3750000000002 -178.12500000000017 703.3750000000002 -180 706 C-180.68062500000002 706.33 -181.36124999999998 706.66 -182.0625 707 C-184.7679176285972 708.3963445825018 -185.55725175078123 710.3768213650568 -187 713 C-187.66 713.66 -188.32 714.32 -189 715 C-187.2890625000001 715.71484375 -187.2890625000001 715.71484375 -185 716 C-182.71093750000009 714.5664062500001 -182.71093750000009 714.5664062500001 -180.375 712.5625 C-176.17808219178085 709 -176.17808219178085 709 -174 709 C-174 709.66 -174 710.32 -174 711 C-174.66 711.33 -175.32 711.66 -176 712 C-176.28875 712.763125 -176.5775 713.52625 -176.875 714.3125 C-178.1511319812855 717.3610375108486 -179.418805684752 718.9502280437737 -182 721 C-183.32 721 -184.64 721 -186 721 C-186.32999999999998 721.99 -186.66 722.98 -187 724 C-190.49612306815135 726.0383970137838 -194.25338111286098 727.4816606722936 -198 729 C-199.093125 729.45375 -200.18625 729.9075 -201.3125 730.375 C-210.7055353098143 731.9670398830194 -220.65814342058087 730.7527277171544 -229 726 C-229.52335937499998 725.471484375 -230.04671875 724.94296875 -230.5859375 724.3984375 C-231.99999999999994 723 -231.99999999999994 723 -234.9375 722.5 C-238.7378874452447 720.6385857411046 -238.9014472237704 719.5079700484566 -240.3125 715.625 C-241.32974715803215 712.4402008807601 -242.19275921904566 709.2426451709522 -243 706 C-243.6550950289648 703.9961799114017 -244.3197436310912 701.9954186821325 -245 700 C-244.34 699.67 -243.68 699.34 -243 699 C-243.66 698.67 -244.32 698.34 -245 698 C-246.6340999992717 694.9449434796225 -248.0845568067695 691.8207395696486 -249.5625 688.6875 C-251.00000000000006 686 -251.00000000000006 686 -253 685 C-252.938125 684.195625 -252.87625 683.39125 -252.8125 682.5625 C-253.0181240324947 678.6556433826003 -254.0171769218196 675.7564851313903 -255.44140625 672.1484375 C-256.0766642459158 669.7051375157083 -255.80653593318397 668.3608535262736 -255 666 C-254.67000000000002 666.99 -254.34 667.98 -254 669 C-253.34 668.67 -252.68 668.34 -252 668 C-253.49999999999997 664.25 -253.49999999999997 664.25 -255.875 663.0625 C-258.72306255230535 661.6384687238474 -260.03758714260687 659.4688419818816 -262 657 C-262.99 656.67 -263.98 656.34 -265 656 C-265.45375 655.01 -265.9075 654.02 -266.375 653 C-266.643125 652.505 -266.643125 652.505 -268 650 C-269.6582177279977 649.6269010112005 -271.3257701421632 649.2929902251215 -273 649 C-276.3536623110818 644.8079221111477 -277.04939191909506 640.4169112410514 -276.94140625 635.1328125 C-275.1841998992957 621.1838548706978 -267.71194186594454 609.4888159592662 -260 598 C-259.81050781249996 597.6925585937499 -259.81050781249996 597.6925585937499 -258.8515625 596.13671875 C-257.3189742939593 593.6661865618623 -255.91903490204794 591.9360801858273 -253.625 590.125 C-249.3411369542333 586.6571108677126 -246.20259092220053 582.1960355970618 -243.5625 577.375 C-241.6551734681002 574.4758636715123 -239.3758230821549 572.6021694936098 -236.703125 570.41796875 C-235.00000000000006 569 -235.00000000000006 569 -232.8125 566.75 C-231.00000000000006 565 -231.00000000000006 565 -228.875 564.0625 C-227 563 -227 563 -226.1875 560.625 C-224.73455802249924 557.4132335234194 -223.03747092717717 556.7843794822772 -219.98828125 555.21875 C-216.87356540332212 553.3095332138241 -214.56417079509748 550.7085777891051 -212.04296875 548.08984375 C-207.10957113747816 543.0432515459863 -201.86112174741427 538.9074144982762 -196 535 C-194.3647145843006 533.6793015533519 -192.74118204818558 532.3440083202497 -191.125 531 C-184.48128830597682 525.4986046220056 -177.5803736928391 520.3539080172444 -170.64501953125 515.2275390625 C-169.29802839181355 514.2223934036863 -167.97199033220062 513.1892236563446 -166.65234375 512.1484375 C-165 511 -165 511 -163 511 C-162.67000000000002 510.01 -162.34 509.02 -162 508 C-160.1414648260445 507.0876281873309 -158.27917406008538 506.182088240653 -156.3984375 505.31640625 C-152.60843303681975 503.2362246472446 -149.46659578325682 500.4202425262555 -146.19921875 497.609375 C-144 496 -144 496 -141 496 C-140.67 495.01 -140.34 494.02 -140 493 C-138.00390624999997 491.61328125 -138.00390624999997 491.61328125 -135.5625 490.3125 C-134.7594140625 489.8755078125 -133.956328125 489.43851562500004 -133.12890625 488.98828125 C-131 488 -131 488 -129 488 C-127.85143821481614 486.81765698584013 -126.70491318132031 485.63324682582265 -125.5703125 484.4375 C-123.18460555107467 482.25356926068525 -120.46413853967596 480.72460626255736 -117.671875 479.11328125 C-116 478 -116 478 -115 476 C-113.35220432720999 475.2838426499028 -111.70155753486287 474.573525871077 -110.037109375 473.89697265625 C-106.43092313944783 472.30910973326115 -103.11803244839444 470.22186660557486 -99.75 468.1875 C-94.05435787009662 464.7886961623003 -88.32847200635581 461.49909847239024 -82.48046875 458.3671875 C-79.89562585842609 456.9424709455892 -77.38819983670939 455.42217662229274 -74.875 453.875 C-70.99313539840512 451.5075570980719 -67.06466104684768 449.6336457045017 -62.8828125 447.86328125 C-61.00000000000006 447.00000000000006 -61.00000000000006 447.00000000000006 -59 445.5 C-56.356653846311474 443.5174903847336 -53.51327005385713 442.398246330246 -50.484375 441.1015625 C-47.97671665381631 439.98967625216386 -45.55926159584567 438.7636453507097 -43.125 437.5 C-38.73130788601486 435.2690414265945 -34.26746180815633 433.59423249716474 -29.6171875 431.98046875 C-27.135331549056104 431.0506988340494 -24.84738245237088 429.9752820493145 -22.5 428.75 C-19.000000000000057 427 -19.000000000000057 427 -16 427 C-15.760234374999982 426.34515625 -15.52046875000002 425.6903125 -15.2734375 425.015625 C-13.629396440545406 421.12237439294796 -11.634140169507361 417.464805822661 -9.625 413.75 C-6.50177128177279 407.9220938856807 -3.553137587789024 402.10532901427814 -1 396 C-0.339999999999975 396 0.3199999999999932 396 1 396 C1.1585546874999864 395.41734375 1.3171093749999727 394.8346875 1.48046875 394.234375 C4.087983399894938 385.0720583296509 7.745241349322043 376.5095173013559 12 368 C13.014959505921297 365.53083380702344 13.991897987802531 363.0485059018885 14.96484375 360.5625 C15.907146125511247 358.22985713835703 16.932542040777605 355.9647436463411 18 353.6875 C20.115542773223353 349.00190331086856 21.542854264797256 344.1696525818374 23 339.24609375 C23.895989555228596 336.3376276547071 24.90717723698981 333.5262778804757 26 330.6875 C29.73964217566811 320.4991835214081 32.06415602828457 310.1405858445725 33.3125 299.375 C33.40096191406252 298.62919677734374 33.489423828124984 297.8833935546875 33.58056640625 297.114990234375 C34.179620202782985 291.2552877434544 33.397116099015705 286.268848916194 31.9375 280.625 C31.62812500000001 279.42875 31.318750000000023 278.2325 31 277 C18.754886667109474 273.8608925566107 6.734190234128732 275.43194780179056 -5.5625 277.375 C-6.299924316406248 277.4886791992187 -7.0373486328124955 277.6023583984375 -7.797119140625 277.719482421875 C-12.600927401648732 278.5404452136086 -16.58024277145256 279.94552405347616 -21 282 C-37.830882352941046 289 -37.830882352941046 289 -42 289 C-42.33000000000004 289.99 -42.65999999999997 290.98 -43 292 C-44.97583714814732 292.7351952179153 -46.98177597781273 293.39072482349064 -49 294 C-58.36578962687122 298.13837216071056 -66.51304807980864 304.09965462200915 -74 311 C-75.33129089967181 312.14820570718257 -76.66464604051924 313.2940221434349 -78 314.4375 C-87.37966816683846 322.6791262366154 -94.84333544500348 331.80717472470195 -102 342 C-100.68 341.67 -99.36000000000001 341.34 -98 341 C-99.74268207202641 344.9606410727873 -102.14674728724324 348.74436549441856 -105 352 C-105.66 352 -106.32 352 -107 352 C-107.33000000000001 352.99 -107.66 353.98 -108 355 C-108.30937499999999 355.14437499999997 -108.30937499999999 355.14437499999997 -109.875 355.875 C-112.75736279480608 357.40095677372085 -113.58223495202873 359.09695728272544 -115 362 C-115.36442232675304 363.6601461552083 -115.69972883215465 365.32706063629024 -116 367 C-117.57894736842104 370.7894736842105 -117.57894736842104 370.7894736842105 -120 372 C-121.32723048261147 374.27775528368966 -122.49585503141967 376.61561247604146 -123.68359375 378.96875 C-125 381 -125 381 -128 382 C-127.96841796875 382.44021484375 -127.96841796875 382.44021484375 -127.80859375 384.66796875 C-128.02926702842058 388.50948520903563 -128.9302952897095 390.1493391660526 -131.0625 393.3125 C-131.7031640625 394.2676953125 -132.343828125 395.222890625 -133.00390625 396.20703125 C-135.3281572730338 399.45916330766966 -137.77449237103014 402.58990525304 -140.265625 405.71484375 C-142.72811606537513 408.9593421131632 -144.83344557523768 412.3965733074988 -146.9921875 415.84765625 C-153.71085713847233 426.39622900923575 -160.85102551802316 436.50292356668376 -169 446 C-169.99 445.67 -170.98000000000002 445.34 -172 445 C-172 446.32 -172 447.64 -172 449 C-173.31250000000009 451.0703125000001 -173.31250000000009 451.0703125000001 -175 453.125 C-178 456.8055555555556 -178 456.8055555555556 -178 459 C-178.5891015625 459.255234375 -179.17820312499998 459.51046875 -179.78515625 459.7734375 C-186.23580175258343 463.34575264605155 -190.40606811602453 470.7727263208535 -194 477 C-191.69 477 -189.38 477 -187 477 C-188.56471348396934 480.840660369743 -191.06034127053601 483.1303331450471 -194 486 C-194.61875 486.8456249999999 -195.2375 487.6912500000001 -195.875 488.5625 C-201.10963988821052 494.56693987177096 -207.43462417584254 495.8431216043541 -215 497 C-215 497.6600000000001 -215 498.31999999999994 -215 499 C-215.94875000000002 499.0825 -216.8975 499.16499999999996 -217.875 499.25 C-221 500 -221 500 -222.375 502.0625 C-222.58125 502.701875 -222.7875 503.34124999999995 -223 504 C-223.639375 503.8143749999999 -224.27875 503.6287500000001 -224.9375 503.4375 C-225.618125 503.2931249999999 -226.29874999999998 503.14875000000006 -227 503 C-227.32999999999998 503.3299999999999 -227.66 503.6600000000001 -228 504 C-233.52941176470588 504.2352941176471 -233.52941176470588 504.2352941176471 -236 503 C-236 503.99 -236 504.98 -236 506 C-237.093125 505.8556249999999 -238.18625 505.71125000000006 -239.3125 505.5625 C-243.72583694658152 505.0029519228442 -248.1477003022004 504.6314933470758 -252.58203125 504.28125 C-254.99999999999997 504 -254.99999999999997 504 -258 503 C-258 502.01 -258 501.02 -258 500 C-258.598125 499.73187499999995 -259.19624999999996 499.46375 -259.8125 499.1875 C-261.97224807596854 498.01506533018846 -263.357902561546 496.8063071822994 -265 495 C-265.65999999999997 495.3299999999999 -266.32 495.6600000000001 -267 496 C-270 494 -270 494 -270.625 491.9375 C-270.8425575996357 490.2332988028538 -271.03730154596366 488.5252530513716 -271.171875 486.8125 C-271.8684789750329 478.6675919842313 -271.8684789750329 478.6675919842313 -275 476 C-276.32 476 -277.64 476 -279 476 C-280.48421477120206 472.14104159487465 -279.361269421545 469.7813039487361 -278 466 C-277.25 462.8125 -277.25 462.8125 -277 460 C-277.33 459.505 -277.33 459.505 -279 457 C-278.6997288321547 455.32706063629024 -278.364422326753 453.6601461552083 -278 452 C-278.32380126367855 450.66431978732595 -278.65657551135104 449.3307698935147 -279 448 C-278.56682350722957 445.48757634193163 -277.7309945028434 443.1771596557562 -276.9375 440.75 C-276.169194497924 437.67677799169604 -275.9377205609895 435.8582526703928 -276.0625 432.8125 C-276 429 -276 429 -274.8125 426.5625 C-272.99999999999994 425 -272.99999999999994 425 -270.4375 424.5625 C-269.633125 424.376875 -268.82875 424.19125 -268 424 C-266.750022043985 421.68754078137226 -266.12260252399716 419.6334463739854 -265.625 417.0625 C-263.98392575333463 411.6469549860043 -259.9516782220274 407.84487610791854 -256 404 C-255 402 -255 402 -254.68359375 399.6484375 C-253.8349705092155 396.3606286014178 -252.44588522624366 395.0126951452784 -250.0625 392.625 C-246.5012117877833 388.8052820237109 -245.27412205474434 386.0964882189774 -244 381 C-242.2243417714868 377.8393283532465 -240.32511125811934 374.78634256747455 -238 372 C-237.34 372 -236.68 372 -236 372 C-236 372.99 -236 373.98 -236 375 C-235.3851171875 374.1685546875 -234.770234375 373.337109375 -234.13671875 372.48046875 C-233.3204414899189 371.38271657264954 -232.50402806755096 370.2850656349871 -231.6875 369.1875 C-231.28337890625 368.64029296875 -230.8792578125 368.0930859375 -230.462890625 367.529296875 C-228.44906484719334 364.82782327062523 -226.38526652166885 362.3708974462371 -224 360 C-222.98234073299957 358.00892752108615 -221.98422145805063 356.00781177442326 -221 354 C-219.68568305387387 351.9874521762444 -218.35278115015848 349.9868973142953 -217 348 C-216.525625 347.175 -216.05125 346.35 -215.5625 345.5 C-213.59442527601416 342.3510804416227 -211.53452266961182 339.7246118698327 -209 337 C-208.01 337 -207.01999999999998 337 -206 337 C-204.24609375 334.59375 -204.24609375 334.59375 -202.4375 331.5 C-201.34288929188614 329.63563079392213 -200.20795438393554 327.7930118084441 -199 326 C-198.34 326 -197.68 326 -197 326 C-196.87625 325.030625 -196.7525 324.06125 -196.625 323.0625 C-196.41875 322.051875 -196.2125 321.04125 -196 320 C-195.34 319.67 -194.68 319.34 -194 319 C-193.67000000000002 318.01 -193.34 317.02 -193 316 C-192.34 315.67 -191.68 315.34 -191 315 C-189.99999999999997 313.25781249999994 -189.99999999999997 313.25781249999994 -189 311.125 C-187.14282036567568 307.193002492954 -185.7250633068266 304.4833755378844 -182 302 C-181.731875 301.29875 -181.46375 300.5975 -181.1875 299.875 C-179.377991916175 295.49408569179207 -176.3509009470349 290.17545047351746 -172 288 C-171.0583142847958 286.1166285695916 -170.12101531598051 284.23087782093677 -169.2109375 282.33203125 C-167.13809381959305 278.3401355170873 -164.55187582888368 274.69657441498293 -162 271 C-161.34 270.01 -160.68 269.02 -160 268 C-159.34 268 -158.68 268 -158 268 C-157.896875 267.236875 -157.79375 266.47375 -157.6875 265.6875 C-156.91325321924808 262.6608989479698 -156.14164574154853 262.14164574154853 -154 260 C-153.32406667108313 258.3777600105995 -152.65072782699048 256.7543781286362 -151.9921875 255.125 C-150.3434371876591 251.5938182286872 -148.14944086510644 248.4218150294554 -146.02734375 245.16015625 C-143.7599796109835 241.62586417203397 -141.59023322906694 238.04228709762174 -139.4375 234.4375 C-139.055615234375 233.799736328125 -138.67373046875 233.16197265625 -138.2802734375 232.5048828125 C-136.57444469053348 229.65205657617162 -134.87927443577078 226.7939023447974 -133.19921875 223.92578125 C-132.6797265625 223.0427734375 -132.160234375 222.15976562499998 -131.625 221.25 C-131.184140625 220.49203124999997 -130.74328125 219.7340625 -130.2890625 218.953125 C-129.00000000000003 217 -129.00000000000003 217 -127.42578125 215.44140625 C-125.53448152429547 213.52937995195896 -124.81530050718055 211.31284862302556 -123.8203125 208.8515625 C-122.53008190941608 205.9393277383963 -120.92182173490366 203.54176423003386 -119 201 C-118.34 201 -117.68 201 -117 201 C-116.89429687500001 200.27296875 -116.78859374999999 199.5459375 -116.6796875 198.796875 C-115.94273255252412 195.76434774486933 -114.86363505639815 193.82767784480922 -113.125 191.25 C-112.61195312500001 190.47140625 -112.09890625 189.6928125 -111.5703125 188.890625 C-110 187 -110 187 -107 186 C-105.91844497448832 184.0429004300265 -104.94368682974866 182.0271791157564 -104 180 C-103.01438444269968 178.09664874471753 -102.01320283316846 176.20131021985725 -101 174.3125 C-100.505 173.3805078125 -100.00999999999999 172.448515625 -99.5 171.48828125 C-98.13430546056048 169.22279317285685 -96.85763743281836 167.83441696490812 -95 166 C-93.65152524334641 164.01017749323066 -92.31956436754265 162.0091111611082 -91 160 C-89.59591006403565 158.11556350699524 -88.17885180125342 156.24073094911867 -86.75 154.375 C-82.86556487953484 149.2342129263811 -79.25132354785754 143.98968049301646 -75.7265625 138.59375 C-72.59414758269736 133.8880407124684 -72.59414758269736 133.8880407124684 -71 132 C-70.34000000000003 132 -69.68 132 -69 132 C-69 132.99 -69 133.98 -69 135 C-68.85304687500002 134.2871484375 -68.70609375000004 133.574296875 -68.5546875 132.83984375 C-66.59660514584778 124.47860703083273 -63.465998286087085 120.30095074865437 -57.375 114.5 C-55.35572359497223 112.3744458894445 -54.27628681689316 110.83900430425368 -52.9375 108.3125 C-50.93055388494167 104.88126954522289 -50.346953723144054 104.56191173746723 -47 103 C-46.71125000000001 102.26136718750001 -46.422500000000014 101.522734375 -46.125 100.76171875 C-44.85968629407279 97.65554933996339 -43.24669006636685 95.52756315648935 -41.125 92.9375 C-40.44695312499999 92.1008984375 -39.768906249999986 91.26429687500001 -39.0703125 90.40234375 C-37.13279066974246 88.15408728658792 -35.16539137334371 86.02946853822044 -33 84 C-32.66999999999996 84 -32.34000000000003 84 -32 84 C-31.75121093749999 83.12859375 -31.502421874999982 82.25718749999999 -31.24609375 81.359375 C-29.930652610039033 77.81304465402378 -28.310289651327196 75.28053949266459 -26.0625 72.25 C-25.37285156249999 71.30640625 -24.683203124999977 70.3628125 -23.97265625 69.390625 C-22.000000000000057 67.00000000000004 -22.000000000000057 67.00000000000004 -19 65 C-17.387823106140672 61.973406577928046 -16.00652418223774 58.87580831899143 -14.59765625 55.75 C-12.859837677847224 52.758742604411836 -11.996775928322165 52.396854488150154 -9 51 C-8.093749999999943 49.082031249999915 -8.093749999999943 49.082031249999915 -7.5 46.8125 C-6.207853672640738 42.40064126901653 -4.410200296692608 38.90618668774316 -2 35 C-1.009999999999991 35 -0.01999999999998181 35 1 35 C1.144375000000025 33.906875 1.2887499999999932 32.81375 1.4375 31.6875 C2 28.000000000000057 2 28.000000000000057 3 25 C2.6805315713328355 23.66327683794519 2.345336474826752 22.330275012184742 2 21 C2.0054477481031086 19.270339977260605 2.0501926340825207 17.54055015269428 2.125 15.8125 C2.198251816402262 10.362564859671046 1.07636993017519 6.005534653100959 -1 1 C-0.6700000000000159 0.6700000000000017 -0.339999999999975 0.3400000000000034 0 0 Z M45 78 C44.670000000000016 78.16500000000002 44.670000000000016 78.16500000000002 43 79 C43 79.66 43 80.32 43 81 C43.99000000000001 80.67000000000002 44.98000000000002 80.34 46 80 C45.670000000000016 79.34 45.339999999999975 78.68 45 78 Z M46 80 C46.329999999999984 81.32 46.660000000000025 82.63999999999999 47 84 C47 83.34 47 82.68 47 82 C47.660000000000025 81.67000000000002 48.31999999999999 81.34 49 81 C48.00999999999999 80.67000000000002 47.01999999999998 80.34 46 80 Z M41 82 C40.670000000000016 82.495 40.670000000000016 82.495 39 85 C39.99000000000001 84.67000000000002 40.98000000000002 84.34 42 84 C41.670000000000016 83.34 41.339999999999975 82.68 41 82 Z M-50 107 C-50.33000000000004 107.66 -50.65999999999997 108.32 -51 109 C-50.34000000000003 109 -49.68000000000001 109 -49 109 C-49.33000000000004 108.34 -49.65999999999997 107.68 -50 107 Z M33 113 C32.7525 113.59812499999998 32.504999999999995 114.19625000000002 32.25 114.8125 C30.835559090882555 117.28777159095551 29.271398123311712 118.33430804290472 27 120 C27 120.66 27 121.32 27 122 C32.62134251290877 120.53356282271943 32.62134251290877 120.53356282271943 34.375 118.0625 C35 116 35 116 35 113 C34.339999999999975 113 33.68000000000001 113 33 113 Z M15 127 C15.329999999999984 127.66 15.660000000000025 128.32 16 129 C16.329999999999984 128.34 16.660000000000025 127.68 17 127 C16.339999999999975 127 15.680000000000007 127 15 127 Z M252 247 C252.33000000000004 247.65999999999997 252.65999999999997 248.32 253 249 C253.33000000000004 248.34000000000003 253.65999999999997 247.68 254 247 C253.34000000000003 247 252.67999999999995 247 252 247 Z M302 271 C302.33000000000004 271.66 302.65999999999997 272.32 303 273 C303.33000000000004 272.34 303.65999999999997 271.68 304 271 C303.34000000000003 271 302.67999999999995 271 302 271 Z M247 327 C247.65999999999997 327.66 248.32000000000005 328.32 249 329 C249 328.34 249 327.68 249 327 C248.34000000000003 327 247.67999999999995 327 247 327 Z M228 334 C229 336 229 336 229 336 Z M70 339 C71 342 71 342 71 342 Z M-106 343 C-105.66999999999999 343.66 -105.34 344.32 -105 345 C-103.68 345 -102.36000000000001 345 -101 345 C-101 344.34 -101 343.68 -101 343 C-102.65 343 -104.30000000000001 343 -106 343 Z M64 356 C65 358 65 358 65 358 Z M63 358 C57.081206503904696 367.8191965833839 52.84635270072704 378.4825625048092 48.5 389.0625 C45.57560489700927 396.15342458083035 42.28473773166223 403.07081262369815 39 410 C40.890625 409.71875 40.890625 409.71875 43 409 C44.75 405.5 44.75 405.5 45.7421875 403.04296875 C47.317780388532526 399.23120831469924 49.09650807020654 395.53282747454574 50.875 391.8125 C54.440071383142595 384.2838447226082 57.81384379435315 376.6982283478051 61 369 C61.35320312499999 368.162109375 61.706406249999986 367.32421875 62.0703125 366.4609375 C64.12417763157896 361.3725328947368 64.12417763157896 361.3725328947368 63 358 Z M213 364 C213.32999999999993 364.66 213.66000000000008 365.32 214 366 C214.32999999999993 365.34 214.66000000000008 364.68 215 364 C214.33999999999992 364 213.68000000000006 364 213 364 Z M44 418 C43.670000000000016 418.66 43.339999999999975 419.32 43 420 C44.98000000000002 419.67 46.95999999999998 419.34 49 419 C49 418.67 49 418.34 49 418 C47.35000000000002 418 45.69999999999999 418 44 418 Z M187 435 C187.32999999999993 435.66 187.66000000000008 436.32 188 437 C188.32999999999993 436.34 188.66000000000008 435.68 189 435 C188.33999999999992 435 187.68000000000006 435 187 435 Z M-253 436 C-252 438 -252 438 -252 438 Z M186 437 C187 439 187 439 187 439 Z M185 439 C186 441 186 441 186 441 Z M184 441 C181.96742488279358 444.04886267580963 180.53819692272884 447.0907202131227 179.25 450.5 C177.12378016501475 456.0448478049616 174.2567087875688 461.087879025216 171.29296875 466.21484375 C170 469 170 469 171 472 C175.35453290996082 467.278340193649 177.69384839746448 461.7211405897727 180.3125 455.9375 C180.546142578125 455.440888671875 180.546142578125 455.440888671875 181.728515625 452.927734375 C182.16486328125006 451.97060546875 182.6012109375 451.0134765625 183.05078125 450.02734375 C183.44950439453123 449.15843505859374 183.84822753906246 448.2895263671875 184.259033203125 447.394287109375 C185.07074406870288 444.77140458590804 184.9371583734228 443.54066688986427 184 441 Z M-43.95703125 462.0546875 C-46.62739995816344 463.76180382434586 -49.03443242664508 464.93280613277193 -52 466 C-53.34050052412579 466.6521353901153 -54.676613680231185 467.31379968604574 -56 468 C-56 468.99 -56 469.98 -56 471 C-56.78375 471.1856250000001 -57.567499999999995 471.3712499999999 -58.375 471.5625 C-65.6847876022349 474.4612088767483 -73.04764677709306 479.8829653928053 -78.5 485.5625 C-80 487 -80 487 -82.5 488.4375 C-85 490 -85 490 -86.4375 492 C-88.5280002917371 494.6758403734235 -90.93598196862288 495.63821420827685 -94 497 C-94 497.65999999999997 -94 498.31999999999994 -94 499 C-95.65 499.3299999999999 -97.30000000000001 499.65999999999997 -99 500 C-99.32999999999998 500.99 -99.66 501.98 -100 503 C-101.81250000000006 504 -101.81250000000006 504 -104 505 C-106.25 506.375 -106.25 506.375 -108 508 C-108 509.31999999999994 -108 510.64 -108 512 C-110.31 512.66 -112.62 513.32 -115 514 C-115 514.66 -115 515.32 -115 516 C-116.32 516.33 -117.63999999999999 516.66 -119 517 C-119 518.32 -119 519.64 -119 521 C-119.30937499999999 521.12375 -119.30937499999999 521.12375 -120.875 521.75 C-123 523 -123 523 -124 525 C-125.24508396273458 527.4901679254692 -126.46716795803206 527.9868671832128 -129 529 C-129 529.66 -129 530.3199999999999 -129 531 C-129.28359375 531.0322265625 -129.28359375 531.0322265625 -130.71875 531.1953125 C-133.93212528491014 532.3287976176224 -135.31342428176472 534.291545812359 -137.5 536.875 C-142.6542424242424 542.9294696969697 -142.6542424242424 542.9294696969697 -146 545 C-146.99 545 -147.98000000000002 545 -149 545 C-149.32999999999998 546.03125 -149.66 547.0625 -150 548.125 C-151.74265248331113 552.3124416467914 -154.50710040011523 554.1592744301099 -158.2578125 556.54296875 C-160 558 -160 558 -160.4921875 560.05078125 C-160.659765625 560.6940234374999 -160.82734375 561.337265625 -161 562 C-162.84765625000006 563.03515625 -162.84765625000006 563.03515625 -165 564 C-166.74609374999997 565.62109375 -166.74609374999997 565.62109375 -168.4375 567.4375 C-171.10525816599718 570.2083046187611 -173.70064489937963 572.0203869396278 -177 574 C-177.144375 574.33 -177.144375 574.33 -177.875 576 C-179.37210389778744 578.661518040511 -181.2258749850223 579.0883148828274 -184.05078125 579.99609375 C-186.9217263250951 581.4747167646282 -188.77810536340795 583.6716672969844 -191 586 C-191.8855859375 586.8623828125 -192.771171875 587.724765625 -193.68359375 588.61328125 C-201.13272326548255 595.9144847892885 -207.0955572387123 603.4266394359389 -212.703125 612.21484375 C-214 614 -214 614 -216 615 C-217.1394104071817 617.0422849829991 -218.1893216486833 619.1350947995854 -219.1875 621.25 C-219.7379296875 622.38953125 -220.288359375 623.5290625 -220.85546875 624.703125 C-222.03900580307487 628.1123580129529 -222.09738069053307 629.6253957955862 -221 633 C-220.01 633.33 -219.02 633.66 -218 634 C-217.8453125 634.3196875 -217.8453125 634.3196875 -217.0625 635.9375 C-215.72190028283325 638.5398406274413 -214.65925583518074 638.8684017722635 -212 640 C-209.03484088208805 640.8385754991507 -206.02274680382325 641.4067988354271 -203 642 C-202.4328125 642.12375 -202.4328125 642.12375 -199.5625 642.75 C-191.93157506532097 643.285503504188 -185.20509965482367 640.8617612688951 -178.1875 638.125 C-177.870390625 638.0028210449218 -177.870390625 638.0028210449218 -176.265625 637.384521484375 C-172.28231153332922 635.763931874983 -169.27383344914432 633.7581322509606 -166 631 C-165.175 630.7112500000001 -164.35 630.4225 -163.5 630.125 C-159.86303820951406 628.4883671942813 -158.34332326139918 626.213700472776 -156 623 C-156 622.34 -156 621.6800000000001 -156 621 C-155.443125 620.79375 -154.88625000000002 620.5875 -154.3125 620.375 C-151.02987628616185 618.4231696836638 -149.29326754169898 616.0576900555986 -147 613 C-147 612.34 -147 611.6800000000001 -147 611 C-146.34 611 -145.68 611 -145 611 C-143.73828125 609.4609375 -143.73828125 609.4609375 -142.3125 607.375 C-139.72978246000713 603.7833092687077 -137.018797976101 601.104484936654 -133.515625 598.421875 C-131.7626827429757 596.7773621609359 -131.0508482085247 595.144240878933 -130 593 C-128.57709457843902 591.8087303447396 -127.1507078601885 590.6211147360824 -125.69921875 589.46484375 C-119.98660771001926 584.5401790603614 -115.50900626466313 578.1509498005614 -110.859375 572.2578125 C-109.35332567346865 570.4290383177834 -107.85023828071098 568.8011052154885 -106.125 567.1875 C-103.83875580905885 564.8340133328547 -103.07231946649966 563.0637699042848 -102 560 C-100.625 557.25 -100.625 557.25 -99 555 C-98.31937499999998 554.855625 -97.63875000000002 554.7112500000001 -96.9375 554.5625 C-96.298125 554.376875 -95.65875 554.19125 -95 554 C-94.71125 553.113125 -94.42250000000001 552.2262499999999 -94.125 551.3125 C-92.84656356979681 547.5482149555129 -91.3559453908106 546.2061656442739 -88.52734375 543.578125 C-85.35030214920039 540.2954528600434 -83.43773575863841 536.3132072759151 -82 532 C-81.00999999999999 532 -80.02000000000001 532 -79 532 C-78.505 530.88625 -78.00999999999999 529.7725 -77.5 528.625 C-75.21469069439036 523.9801294618836 -72.0929100036717 520.2829523047733 -68.70703125 516.39453125 C-67 514 -67 514 -66.51171875 511.32421875 C-66.34285156249996 510.5572265625 -66.17398437500003 509.79023437499995 -66 509 C-64.69059193604858 508.28748842515984 -63.35431675567958 507.62293526751 -62 507 C-60.62109375000006 504.94140625 -60.62109375000006 504.94140625 -59.4375 502.5625 C-57.2906183461522 498.2898535610308 -57.2906183461522 498.2898535610308 -55.515625 496.51953125 C-53.587530832151856 494.5864677672862 -52.567333931199755 492.5483755576752 -51.3125 490.125 C-48.35569283582106 484.5382688757221 -45.05989494358221 479.25286568395404 -41.63671875 473.9453125 C-40.10162923718826 471.1828841165632 -39.39576806873464 469.10878685875605 -39 466 C-39.99000000000001 466 -40.98000000000002 466 -42 466 C-41.51789062500001 465.69707031250005 -41.035781250000014 465.394140625 -40.5390625 465.08203125 C-36.63056362646819 462.48965954816765 -34.22248629081378 460.7541133531648 -33 456 C-37.06840275421075 456 -40.709468130635 459.8035816358936 -43.95703125 462.0546875 Z M5 488 C6 490 6 490 6 490 Z M-58 583 C-62 588.4117647058823 -62 588.4117647058823 -62 591 C-60.68000000000001 590.67 -59.360000000000014 590.34 -58 590 C-57.34000000000003 587.69 -56.68000000000001 585.38 -56 583 C-56.65999999999997 583 -57.31999999999999 583 -58 583 Z M-224 604 C-223 606 -223 606 -223 606 Z M-225 621 C-225.66 623.31 -226.32 625.62 -227 628 C-226.34 628.33 -226.34 628.33 -223 630 C-223 627.03 -223 624.06 -223 621 C-223.66 621 -224.32 621 -225 621 Z M-265 643 C-263.6062739148358 651.5172149648922 -259.1094495793849 657.0773837410856 -253 663 C-253.42561460050604 657.573413843548 -254.44256045308688 655.0515283728732 -258 651 C-259.325695141516 648.8804754324266 -260.5966660615277 646.7363173908074 -261.8515625 644.57421875 C-262.230546875 644.0547265625 -262.60953125000003 643.535234375 -263 643 C-263.65999999999997 643 -264.32 643 -265 643 Z M-250 669 C-250.32999999999998 669.66 -250.66 670.32 -251 671 C-250.06553465181452 673.0314464090989 -249.06775224462046 675.0353358698984 -248 677 C-247.01 677 -246.01999999999998 677 -245 677 C-244.6875 674.6875 -244.6875 674.6875 -245 672 C-247.5 670.1875 -247.5 670.1875 -250 669 Z M-241 678 C-240.67000000000002 678.99 -240.34 679.98 -240 681 C-239.34 681 -238.68 681 -238 681 C-238.32999999999998 680.01 -238.66 679.02 -239 678 C-239.66 678 -240.32 678 -241 678 Z M-234 692 C-234 692.66 -234 693.32 -234 694 C-232.35 693.67 -230.7 693.34 -229 693 C-229 692.34 -229 691.68 -229 691 C-232 691 -232 691 -234 692 Z M-150 693 C-150.33 693.495 -150.33 693.495 -152 696 C-151.01 696 -150.02 696 -149 696 C-148.67 695.01 -148.34 694.02 -148 693 C-148.66 693 -149.32 693 -150 693 Z M-213.5625 725 C-214.20316406249998 725.556875 -214.84382812500002 726.11375 -215.50390625 726.6875 C-215.9976171875 727.120625 -216.491328125 727.55375 -217 728 C-216.67000000000002 728.165 -216.67000000000002 728.165 -215 729 C-212.64018186802332 728.0642100511127 -210.30368735523493 727.0665219237198 -208 726 C-208.32999999999998 724.68 -208.66 723.36 -209 722 C-210.87824891424896 722 -212.21518836592537 723.8241643920803 -213.5625 725 Z " fill="#888888" transform="translate(330,50)"/>
<path d="M0 0 C0.9900000000000091 0.3300000000000125 1.9800000000000182 0.6599999999999966 3 1 C1.1205029516001446 4.571044391959731 -0.17053156592311325 6.547443007763945 -4 8 C-3.5016827604710556 4.312452427485994 -2.8993235689316066 2.3950933830304564 0 0 Z " fill="#888888" transform="translate(331,214)"/>
<path d="M0 0 C0.660000000000025 0.3300000000000125 1.3199999999999932 0.6599999999999966 2 1 C-2 7.571428571428584 -2 7.571428571428584 -6 9 C-5.333333333333314 7.666666666666657 -4.666666666666686 6.333333333333343 -4 5 C-3.670000000000016 4.278124999999989 -3.339999999999975 3.5562500000000057 -3 2.8125 C-2 1 -2 1 0 0 Z " fill="#888888" transform="translate(309,242)"/>
<path d="M0 0 C0.9900000000000091 0.3300000000000409 1.9800000000000182 0.6599999999999682 3 1 C1.5474430077639454 4.829468434076944 -0.428955608040269 6.120502951600088 -4 8 C-2.8754827282923543 5.02806149620119 -1.7770620857905897 2.6655931286858277 0 0 Z " fill="#888888" transform="translate(300,595)"/>
<path d="M0 0 C0.9900000000000091 0.3300000000000409 1.9800000000000182 0.6599999999999682 3 1 C2.670000000000016 1.1649999999999636 2.670000000000016 1.1649999999999636 1 2 C1.329999999999984 2.990000000000009 1.660000000000025 3.980000000000018 2 5 C0.6800000000000068 5 -0.6399999999999864 5 -2 5 C-1.670000000000016 5.990000000000009 -1.339999999999975 6.980000000000018 -1 8 C-3.5733202609911814 10.573320260991181 -6.14723145207077 13.143885282705469 -8.75 15.6875 C-11 18 -11 18 -12 20 C-12.990000000000009 19.66999999999996 -13.97999999999999 19.340000000000032 -15 19 C-12.332854572280269 14.625881498539684 -9.362785234977139 11.298689398934926 -5.68359375 7.74609375 C-3.3817321380532235 5.3587801988626325 -1.7232521847531643 2.826133582995112 0 0 Z " fill="#888888" transform="translate(259,653)"/>
<path d="M0 0 C0.3300000000000125 0.9900000000000091 0.6599999999999966 1.9800000000000182 1 3 C-0.3125 5.1875 -0.3125 5.1875 -2 7 C-2.6599999999999966 7 -3.319999999999993 7 -4 7 C-2.925988924939844 4.084827081979597 -2.2218982447019755 2.221898244701947 0 0 Z " fill="#888888" transform="translate(234,686)"/>
<path d="M0 0 C0 0.9900000000000091 0 1.9800000000000182 0 3 C-1.53125 4.38671875 -1.53125 4.38671875 -3.5 5.6875 C-3.8248437500000136 5.905996093749991 -3.8248437500000136 5.905996093749991 -5.46875 7.01171875 C-5.974062500000002 7.337851562499964 -6.4793750000000045 7.663984375000041 -7 8 C-5.509023424808447 4.204786899512442 -3.2429915104581823 2.3895726919165554 0 0 Z " fill="#888888" transform="translate(488,700)"/>
<path d="M0 0 C0.3299999999999841 0.9900000000000091 0.660000000000025 1.9800000000000182 1 3 C-1.5654594042241001 5.565459404224043 -3.4768666758955646 5.540460870769039 -7 6 C-2.25 1.125 -2.25 1.125 0 0 Z " fill="#888888" transform="translate(463,712)"/>
<path d="M0 0 C1.0526000976562955 0.004914550781222715 2.1052001953124773 0.00982910156244543 3.189697265625 0.014892578125 C15.95644990140272 0.2038502072692836 27.856755989603244 2.3872114405937737 40.125 5.8125 C40.858395996093805 6.013835449218732 41.591791992187495 6.215170898437464 42.347412109375 6.422607421875 C44.37890625 7.03125 44.37890625 7.03125 47.5625 8.3125 C47.727499999999964 8.807500000000005 47.727499999999964 8.807500000000005 48.5625 11.3125 C50.1875 11.8125 50.1875 11.8125 52.5625 12.3125 C56.301779118665536 13.794101160225978 59.739610861364554 15.371771213235888 63.1875 17.4375 C66.15804763094138 19.087804239411867 68.23395140012326 19.909039563651277 71.5625 20.3125 C71.5625 21.30250000000001 71.5625 22.292500000000018 71.5625 23.3125 C72.24312499999996 23.559999999999945 72.92375000000004 23.807500000000005 73.625 24.0625 C83.6029858299595 28.308451417003994 83.6029858299595 28.308451417003994 86.5625 32.3125 C86.5625 33.30250000000001 86.5625 34.29250000000002 86.5625 35.3125 C85.90250000000003 35.3125 85.24250000000006 35.3125 84.5625 35.3125 C84.8125 37.6875 84.8125 37.6875 85.5625 40.3125 C87.4375 41.6875 87.4375 41.6875 89.5625 42.3125 C90.55250000000001 41.98249999999996 91.54250000000002 41.65250000000003 92.5625 41.3125 C92.50062500000001 41.68375000000003 92.50062500000001 41.68375000000003 92.1875 43.5625 C92.31124999999997 44.47000000000003 92.43499999999995 45.377500000000055 92.5625 46.3125 C93.53187500000001 46.889999999999986 94.50125000000003 47.46749999999997 95.5 48.0625 C98.5625 50.3125 98.5625 50.3125 99.25390625 52.4921875 C99.55016619993842 54.83976634381611 99.7809840205939 56.954693277756746 99.5625 59.3125 C99.23250000000007 59.64250000000004 99.23250000000007 59.64250000000004 97.5625 61.3125 C96.9375 63.437499999999886 96.9375 63.437499999999886 96.5625 65.3125 C97.88249999999994 65.64250000000004 99.20249999999999 65.97249999999997 100.5625 66.3125 C100.23249999999996 67.30250000000001 99.90250000000003 68.29250000000002 99.5625 69.3125 C98.90250000000003 69.3125 98.24250000000006 69.3125 97.5625 69.3125 C97.76874999999995 70.07562499999995 97.97500000000002 70.83875 98.1875 71.625 C98.5625 74.3125 98.5625 74.3125 96.5625 77.3125 C95.24250000000006 76.98249999999996 93.92250000000001 76.65250000000003 92.5625 76.3125 C92.66562499999998 77.07562499999995 92.76874999999995 77.83875 92.875 78.625 C92.82343749999995 79.06843749999996 92.82343749999995 79.06843749999996 92.5625 81.3125 C89.7014657712333 83.5549322333577 88.22173696222217 84.3125 84.5625 84.3125 C84.89249999999993 84.8075 84.89249999999993 84.8075 86.5625 87.3125 C86.23249999999996 88.30250000000001 85.90250000000003 89.29250000000002 85.5625 90.3125 C84.86125000000004 89.83812499999999 84.15999999999997 89.36374999999998 83.4375 88.875 C80.32725186375853 87.18464775204268 78.0596347564333 86.73215617077199 74.5625 86.3125 C73.44875000000002 86.12687500000004 72.33500000000004 85.94124999999997 71.1875 85.75 C67.5625 85.3125 67.5625 85.3125 63.6875 85.5 C54.99052008066292 85.56677143892011 46.20764917728661 79.42689159894735 39.5625 74.3125 C39.23249999999996 73.32249999999999 38.90250000000003 72.33249999999998 38.5625 71.3125 C38.067499999999995 71.14750000000004 38.067499999999995 71.14750000000004 35.5625 70.3125 C35.5625 69.65250000000003 35.5625 68.99250000000006 35.5625 68.3125 C35.211874999999964 68.18875000000003 35.211874999999964 68.18875000000003 33.4375 67.5625 C30.112895499672618 66.1170197824664 27.404034923263453 64.57281187077774 24.5625 62.3125 C24.397500000000036 61.46687499999996 24.23249999999996 60.62125000000003 24.0625 59.75 C23.897500000000036 58.94562499999995 23.73249999999996 58.141250000000014 23.5625 57.3125 C21.579299817600713 56.27958323833366 19.579021943427165 55.27875009789216 17.5625 54.3125 C16.9375 52.250000000000114 16.9375 52.250000000000114 16.5625 50.3125 C15.24565673384484 49.61382551599195 13.908888283114607 48.952391251162226 12.5625 48.3125 C11.291113151577179 47.42573438303282 10.041515696045735 46.50711536968811 8.8125 45.5625 C6.646272501276599 43.901182670152025 4.480059427304582 42.25305305642371 2.265625 40.65625 C1.5385937500000182 40.130312499999945 0.8115625000000364 39.604375000000005 0.0625 39.0625 C-0.6078125000000227 38.582968749999964 -1.2781250000000455 38.10343750000004 -1.96875 37.609375 C-2.45343749999995 37.18140625000001 -2.9381250000000136 36.75343750000002 -3.4375 36.3125 C-3.4375 35.65250000000003 -3.4375 34.99249999999995 -3.4375 34.3125 C-3.808750000000032 34.16812500000003 -3.808750000000032 34.16812500000003 -5.6875 33.4375 C-8.004897969796048 32.4894735578107 -10.216671146472095 31.46404088701445 -12.4375 30.3125 C-12.4375 28.99249999999995 -12.4375 27.672500000000014 -12.4375 26.3125 C-13.137460937500009 26.200351562500032 -13.837421875000018 26.08820312499995 -14.55859375 25.97265625 C-17.767772035775806 25.236765978227822 -20.492310788334407 24.091217424886054 -23.5 22.75 C-30.518245988786816 19.65652632438116 -37.62769053329657 16.81852905382857 -44.771728515625 14.029052734375 C-45.59342529296873 13.704934082031286 -46.415122070312464 13.380815429687459 -47.26171875 13.046875 C-47.99479248046873 12.760380859375005 -48.727866210937464 12.473886718750009 -49.483154296875 12.1787109375 C-51.4375 11.3125 -51.4375 11.3125 -54.4375 9.3125 C-49.117499928903044 6.826518658365899 -43.9904279334753 5.370605509784696 -38.25 4.1875 C-36.67310899425661 3.851882255479495 -35.09628372885288 3.5159554509896225 -33.51953125 3.1796875 C-32.830930175781305 3.0364404296874454 -32.142329101562495 2.8931933593750045 -31.432861328125 2.74560546875 C-30.0520379886716 2.445889256320015 -28.680369369249547 2.101861145253906 -27.319091796875 1.72314453125 C-25.4375 1.3125 -25.4375 1.3125 -23.25 1.875 C-20.403207157188035 2.317834442215144 -19.188889221587374 2.0879105810575993 -16.4765625 1.359375 C-10.968183668541315 0.0770275154123965 -5.6373629490957455 -0.03136666748548578 0 0 Z " fill="#888888" transform="translate(644.4375,777.6875)"/>
<path d="M0 0 C0.041249999999990905 1.1137499999999818 0.08249999999998181 2.2274999999999636 0.125 3.375 C0.9207297488758854 9.93977042822587 4.930061018079982 16.74316443970872 10 21 C12.828433678954525 22.555223797079066 15.705673524263716 23.977201537531414 18.6015625 25.40234375 C21 27 21 27 21.69921875 29.140625 C21.748847656250007 29.447421875000032 21.748847656250007 29.447421875000032 22 31 C22.72187500000001 31.268125000000055 23.443750000000023 31.536249999999995 24.1875 31.8125 C27.155404029814576 33.06561503481055 27.968649263996213 33.934661324584795 29.9375 36.375 C32.6232028602351 39.66670760818556 35.161398867174626 42.039863251323254 39 44 C41.875 43.75 41.875 43.75 44 43 C44 44.64999999999998 44 46.299999999999955 44 48 C44.65999999999997 48 45.31999999999999 48 46 48 C47.01351664023093 49.6584817749233 48.011207951163954 51.3266596096621 49 53 C49.72187500000001 53.721874999999955 50.44375000000002 54.44375000000002 51.1875 55.1875 C51.78562499999998 55.78562499999998 52.38375000000002 56.383749999999964 53 57 C53 57.65999999999997 53 58.32000000000005 53 59 C53.55687499999999 59.18562499999996 54.11374999999998 59.37125000000003 54.6875 59.5625 C59.93444395789845 62.82411381166662 62.51720214834563 68.79615311452665 65.08984375 74.22265625 C66 76 66 76 67.6875 78.125 C69.45133579953864 80.64476542791238 69.65717878359317 82.98317329562019 70 86 C69.34000000000003 86 68.68 86 68 86 C68.32999999999998 87.31999999999994 68.65999999999997 88.63999999999999 69 90 C68.37351562499998 90.26554687500004 67.74703125000002 90.53109374999997 67.1015625 90.8046875 C66.284296875 91.15789062499994 65.46703124999999 91.51109374999999 64.625 91.875 C63.81289062500002 92.22304687500002 63.00078124999999 92.57109375000005 62.1640625 92.9296875 C60 94 60 94 58 96 C58.35062499999998 96.55687499999999 58.701250000000016 97.11374999999998 59.0625 97.6875 C60 100 60 100 59.5 102.375 C58.856178890375304 105.75506082552977 59.753492904166194 107.84707028700859 61 111 C56.20009468095327 115.08502580344407 53.436138070311586 116.57227366801726 47.11328125 116.078125 C44.813777588723326 115.99311562250364 43.14545456933166 116.15864526692872 41 117 C40.83499999999998 117.495 40.83499999999998 117.495 40 120 C37.0625 121.25 37.0625 121.25 34 122 C33.670000000000016 121.83500000000004 33.670000000000016 121.83500000000004 32 121 C31.00999999999999 121.33000000000004 30.019999999999982 121.65999999999997 29 122 C25.884619435250386 121.34251337193643 22.965406831575535 120.14649497403491 20 119 C19.3232421875 118.76667968749996 18.646484375 118.53335937500003 17.94921875 118.29296875 C11.089093608914368 115.50217635793513 7.317537724796921 109.78083728888078 3 104 C2.7209179687499727 103.63455078125003 2.7209179687499727 103.63455078125003 1.30859375 101.78515625 C0.3283551857956013 100.49267459223711 -0.6396462189769636 99.19079894890672 -1.59375 97.87890625 C-2.5492882657907785 96.60220095598504 -3.5521615641180233 95.35987152002986 -4.59375 94.15234375 C-9.225196381584396 88.62412221119712 -10.666440705781213 83.01873312746739 -12 76 C-12.660000000000025 76 -13.319999999999993 76 -14 76 C-14.181757812499995 75.44312500000001 -14.363515624999991 74.88625000000002 -14.55078125 74.3125 C-15.770489645979865 70.60959040810212 -17.00811921932427 66.98037855329972 -18.5 63.375 C-24.220170888594453 48.090945509311155 -25.474332137284875 30.860335814574 -19.015625 15.6875 C-18.0835103434257 13.737229333936853 -17.085741187450537 11.868178156544445 -16 10 C-15.525624999999991 9.174999999999955 -15.051249999999982 8.350000000000023 -14.5625 7.5 C-13 6 -13 6 -10.3125 5.75 C-9.549374999999998 5.832499999999982 -8.786249999999995 5.914999999999964 -8 6 C-7.670000000000016 7.32000000000005 -7.339999999999975 8.639999999999986 -7 10 C-5 4.25 -5 4.25 -5 2 C-1.125 0 -1.125 0 0 0 Z " fill="#888888" transform="translate(393,793)"/>
<path d="M0 0 C0.8320092773437295 0.0034643554687363576 1.664018554687516 0.006928710937472715 2.521240234375 0.010498046875 C9.967780898745218 0.13998443944399241 16.745537487591605 1.3238133961900758 23.9375 3.3125 C24.89656249999996 3.5638671875000227 25.855625000000032 3.8152343750000455 26.84375 4.07421875 C31.347472559445805 5.325988696669469 34.98571346681888 6.779303504371114 38.9375 9.3125 C41.91075874224725 10.708111246360886 44.9193862500108 12.01714398965612 47.9375 13.3125 C47.9375 13.972499999999968 47.9375 14.63250000000005 47.9375 15.3125 C48.63874999999996 15.580625000000055 49.34000000000003 15.848749999999995 50.0625 16.125 C52.9375 17.3125 52.9375 17.3125 56 19 C58.9375 20.3125 58.9375 20.3125 61.125 20.1875 C63.18403488795866 19.19348315753723 64.4438101640817 18.030243311306094 65.9375 16.3125 C66.9375 18.3125 66.9375 18.3125 66.25 21.125 C65.9375 24.3125 65.9375 24.3125 67.875 26.9375 C68.55562499999996 27.721250000000055 69.23625000000004 28.504999999999995 69.9375 29.3125 C69.9375 30.63250000000005 69.9375 31.952499999999986 69.9375 33.3125 C70.4325 33.477499999999964 70.4325 33.477499999999964 72.9375 34.3125 C74.4375 35.6875 74.4375 35.6875 75.9375 37.3125 C76.49437499999999 37.78687500000001 77.05124999999998 38.26125000000002 77.625 38.75 C78.9375 40.3125 78.9375 40.3125 78.9375 44.3125 C80.25749999999994 43.98249999999996 81.57749999999999 43.65250000000003 82.9375 43.3125 C83.22624999999994 44.405624999999986 83.51499999999999 45.49874999999997 83.8125 46.625 C84.96385611432436 50.39888948584087 86.16200993505981 52.537009935059814 88.9375 55.3125 C88.9375 56.30250000000001 88.9375 57.29250000000002 88.9375 58.3125 C88.60749999999996 58.64250000000004 88.60749999999996 58.64250000000004 86.9375 60.3125 C87.3125 62.4375 87.3125 62.4375 87.9375 64.3125 C86.28750000000002 64.97249999999997 84.63750000000005 65.63249999999994 82.9375 66.3125 C83.12312499999996 67.07562499999995 83.30875000000003 67.83875 83.5 68.625 C83.9375 71.3125 83.9375 71.3125 82.9375 74.3125 C83.59749999999997 74.3125 84.25749999999994 74.3125 84.9375 74.3125 C84.9375 77.3125 84.9375 77.3125 83.3125 79 C80.33496978091273 80.64547722633768 78.2939364025849 80.53139802625549 74.9375 80.3125 C72.50952689058624 80.3125 70.30842995154148 80.81335685230704 67.9375 81.3125 C67.9375 81.97249999999997 67.9375 82.63249999999994 67.9375 83.3125 C63.647500000000036 83.3125 59.35749999999996 83.3125 54.9375 83.3125 C54.9375 83.97249999999997 54.9375 84.63249999999994 54.9375 85.3125 C52.995944682455274 84.91515844664195 51.059279616379854 84.49386959416302 49.125 84.0625 C48.04605468750003 83.83046875000002 46.967109375000064 83.59843750000005 45.85546875 83.359375 C42.57771861953461 82.18342180727609 41.79512042838542 81.15356653753054 39.9375 78.3125 C37.5625 77.6875 37.5625 77.6875 34.9375 77.3125 C32.3125 76.6875 32.3125 76.6875 29.9375 75.3125 C29.46312499999999 74.17812500000002 28.988749999999982 73.04375000000005 28.5 71.875 C26.562910935192008 67.45843693223787 25.133204729377326 67.392378109422 20.9375 65.3125 C18.5234375 63.0078125 18.5234375 63.0078125 16.3125 60.4375 C15.577734374999977 59.59445312499997 14.842968749999955 58.751406249999945 14.0859375 57.8828125 C10.687403767780893 53.81693032581791 7.662226094494599 49.85371015749104 4.9375 45.3125 C4.215624999999989 44.46687499999996 3.4937499999999773 43.62125000000003 2.75 42.75 C0.9375 40.3125 0.9375 40.3125 0.9375 36.3125 C-0.052500000000009095 36.64250000000004 -1.0425000000000182 36.97249999999997 -2.0625 37.3125 C-5.3310441385793865 33.82605291884863 -8.080738519150884 30.595934667801885 -10 26.1875 C-11.763997642985373 22.364274982985762 -13.896734327553759 20.619010997323244 -17.41015625 18.390625 C-19.0625 17.3125 -19.0625 17.3125 -21 15.3125 C-23.491197748421826 12.896793092439452 -26.19744399664154 11.246526074960798 -29.16015625 9.4609375 C-30.822772612427684 8.457222488596017 -32.44657842596604 7.389781049355975 -34.0625 6.3125 C-24.7038680781759 2.0167345276872766 -24.7038680781759 2.0167345276872766 -19.875 2.1875 C-16.0625 2.3125 -16.0625 2.3125 -12.890625 1.33984375 C-8.469969407471012 0.15348413690298912 -4.5502053661276705 -0.03098523828953148 0 0 Z M53.9375 71.3125 C54.9375 73.3125 54.9375 73.3125 54.9375 73.3125 Z " fill="#888888" transform="translate(505.0625,797.6875)"/>
<path d="M0 0 C0 3.598579543744563 -0.9583051521252344 5.094511178024391 -3 8 C-3.6599999999999966 8 -4.319999999999993 8 -5 8 C-4.941992187500006 8.734765625000023 -4.883984375000011 9.469531250000045 -4.82421875 10.2265625 C-5.032036073967362 13.505458055929466 -5.8746259389805005 14.762877786362992 -7.8125 17.375 C-10.485928251592583 21.148136326715758 -12.34923862670928 24.689678636407507 -14 29 C-14.659999999999997 29 -15.319999999999993 29 -16 29 C-18.85714285714286 38.285714285714334 -18.85714285714286 38.285714285714334 -17 42 C-17.60328125000001 42.69480468749998 -18.20656249999999 43.389609374999964 -18.828125 44.10546875 C-21.074821618653715 47.099717301119426 -22.376758907670535 49.8412516832783 -23.75 53.3125 C-24.17796874999999 54.38113281250003 -24.60593750000001 55.449765625000055 -25.046875 56.55078125 C-25.204140625000008 56.95490234374995 -25.204140625000008 56.95490234374995 -26 59 C-24 59 -24 59 -21.375 56.5 C-20.591250000000002 55.674999999999955 -19.807500000000005 54.85000000000002 -19 54 C-20.14478858214477 59.914741007748034 -21.73292914596118 65.19678867789389 -24.09765625 70.73828125 C-24.92674538091333 72.81638777293858 -25.515913828788825 74.81911694000735 -26 77 C-25.546249999999986 76.505 -25.0925 76.00999999999999 -24.625 75.5 C-23 74 -23 74 -21 74 C-21.164999999999992 75.07378906250005 -21.329999999999984 76.147578125 -21.5 77.25390625 C-22.9283468217331 88.5691741946589 -22.9283468217331 88.5691741946589 -20.390625 92.48046875 C-18.25 94.25 -18.25 94.25 -16.078125 95.640625 C-13.750510174206084 97.16320011160951 -12.479910318160535 98.65836974974604 -11 101 C-11 101.65999999999997 -11 102.31999999999994 -11 103 C-4.930725245964084 100.68851025325012 0.9100604072099827 98.14089426799353 6.67578125 95.1484375 C13.047619047619008 92 13.047619047619008 92 16 92 C16.99000000000001 91.66999999999996 17.980000000000018 91.34000000000003 19 91 C19.164999999999992 90.505 19.164999999999992 90.505 20 88 C21.77734375 86.39453125 21.77734375 86.39453125 23.9375 84.8125 C24.292636718750003 84.54759765624999 24.292636718750003 84.54759765624999 26.08984375 83.20703125 C28 82 28 82 30 82 C28.98346583006628 84.18945821216494 28.05353822493589 85.94003718807176 26.4375 87.75 C25 90 25 90 24.8125 93.6875 C24.334914016225525 99.45109448600579 20.16859997976053 103.31731044732805 16 107 C15.340000000000003 107 14.680000000000007 107 14 107 C14.329999999999984 107.65999999999997 14.659999999999997 108.31999999999994 15 109 C17.5464869308465 107.01939905378606 19.936317935147315 105.06550155241985 22.1875 102.75 C24 101 24 101 26 101 C26 100.34000000000003 26 99.68000000000006 26 99 C26.659999999999997 99 27.319999999999993 99 28 99 C27.050297643846022 101.11856679449738 26.251579674322528 102.7593585723871 24.5625 104.375 C23 106 23 106 21.6875 108.625 C18.14782270342272 115.70435459315456 13.451918731015326 121.86139369102102 8.3203125 127.859375 C6.734822516605647 130.42993272455647 6.7406246264005745 132.03274572602277 7 135 C6.340000000000003 135 5.680000000000007 135 5 135 C4.670000000000016 136.31999999999994 4.340000000000003 137.64 4 139 C4.990000000000009 139.33000000000004 5.980000000000018 139.65999999999997 7 140 C6.734453125000016 140.5916796875 6.468906250000003 141.183359375 6.1953125 141.79296875 C3.2222222222222285 148.44444444444434 3.2222222222222285 148.44444444444434 2 151.5 C1.670000000000016 152.32500000000005 1.3400000000000034 153.14999999999998 1 154 C0.7602343749999818 154.64324218749994 0.5204687500000205 155.286484375 0.2734375 155.94921875 C-2.3030047736331767 162.36792058822516 -5.918935874015148 168.24642633526025 -11 173 C-12.319999999999993 173 -13.639999999999986 173 -15 173 C-15 173.65999999999997 -15 174.31999999999994 -15 175 C-18.187219695276156 176.85921148891111 -21.414152815688368 177.5999659925343 -24.98828125 178.42578125 C-27.000000000000057 179 -27.000000000000057 179 -30.0625 180.625 C-34.17497327164105 182.54998748885328 -37.65659780920538 182.79639058827786 -42 181.3203125 C-43.69198295506783 180.60394874886242 -45.34991312314443 179.80820581723538 -47 179 C-46.670000000000016 178.01 -46.34 177.01999999999998 -46 176 C-46.59812500000001 175.87625000000003 -46.59812500000001 175.87625000000003 -49.625 175.25 C-55.4466669824381 173.78944043903493 -60.19080013464719 170.65568872432004 -64 166 C-64.625 163.5 -64.625 163.5 -65 161 C-65.63270866613709 159.65022151224093 -66.30062468183351 158.31647118713693 -67 157 C-67.28875 156.15437499999996 -67.57749999999999 155.30875000000003 -67.875 154.4375 C-69 152 -69 152 -71.0625 150.5 C-73.64827556958082 148.4981092364535 -73.52306261791296 147.18866706881045 -74 144 C-77.41976893453145 112.55712451861359 -77.41976893453145 112.55712451861359 -74 107 C-73.34 107 -72.68 107 -72 107 C-71.66999999999999 107.65999999999997 -71.34 108.31999999999994 -71 109 C-70.57847656249999 107.94039062499996 -70.156953125 106.88078125000004 -69.72265625 105.7890625 C-69.16931638158769 104.40102350805046 -68.61592846975992 103.01300366786472 -68.0625 101.625 C-67.78470703125001 100.92632812500005 -67.50691406249999 100.22765625 -67.220703125 99.5078125 C-65.11328125000003 94.22656250000011 -65.11328125000003 94.22656250000011 -64 92 C-63.34 92 -62.68000000000001 92 -62 92 C-61.979375000000005 91.44312500000001 -61.979375000000005 91.44312500000001 -61.875 88.625 C-61.27988759244184 83.95377521190653 -59.327541206065575 80.81727679791982 -56.8046875 76.90625 C-55.07854754329301 74.12649214764065 -53.56784577995188 71.3119953588282 -52.073974609375 68.40478515625 C-49.04337560176299 62.51036883876566 -45.92562554923552 57.12557999748378 -41.6640625 52.0078125 C-39.39380419920491 49.26858065350075 -37.38690850417575 46.355292310792606 -35.359375 43.43359375 C-34.910781250000014 42.960507812500055 -34.4621875 42.487421874999995 -34 42 C-33.00999999999999 42 -32.02000000000001 42 -31 42 C-29.38671875 40.1640625 -29.38671875 40.1640625 -27.6875 37.625 C-27.071328125000008 36.709765625000045 -26.455156250000016 35.79453124999998 -25.8203125 34.8515625 C-24.169763300104705 32.265938216902214 -22.60318869978269 29.652005138970253 -21.0625 27 C-17.863162516834194 21.57466844785904 -14.020608501765565 16.833439101400472 -10 12 C-8.353587293159904 9.979638665738776 -6.7077505563616455 7.958807826387101 -5.0625 5.9375 C-1.1384615384615415 1.13846153846157 -1.1384615384615415 1.13846153846157 0 0 Z M-34 45 C-33 47 -33 47 -33 47 Z M13 94 C14 96 14 96 14 96 Z M-44 173 C-44.329999999999984 173.65999999999997 -44.66 174.31999999999994 -45 175 C-44.34 175 -43.68000000000001 175 -43 175 C-43.329999999999984 174.34000000000003 -43.66 173.68000000000006 -44 173 Z " fill="#888888" transform="translate(216,799)"/>
</svg>
